<mxfile host="Electron" modified="2024-04-29T13:46:41.109Z" agent="Mozilla/5.0 (Windows NT 10.0; Win64; x64) AppleWebKit/537.36 (KHTML, like Gecko) draw.io/24.2.5 Chrome/120.0.6099.109 Electron/28.1.0 Safari/537.36" etag="NALBjmGZ00brjC_bPWW3" version="24.2.5" type="device">
  <diagram name="Object" id="ARKCuN-bJ26smVGkrMyZ">
    <mxGraphModel dx="1434" dy="-716" grid="0" gridSize="10" guides="1" tooltips="1" connect="1" arrows="1" fold="1" page="0" pageScale="1" pageWidth="1100" pageHeight="850" math="0" shadow="0">
      <root>
        <mxCell id="0" />
        <mxCell id="1" parent="0" />
        <mxCell id="_f4fuNwBUE6-upE0QbV--2" value=":" style="html=1;overflow=block;blockSpacing=1;whiteSpace=wrap;ellipse;fontSize=20;fontColor=default;spacing=3.8;strokeOpacity=100;fillOpacity=100;fillColor=#ffeca9;strokeWidth=3.8;lucidId=~.tMpWqE.7GF;" parent="1" vertex="1">
          <mxGeometry x="1076" y="2066" width="60" height="60" as="geometry" />
        </mxCell>
        <mxCell id="_f4fuNwBUE6-upE0QbV--3" value="" style="html=1;jettySize=18;whiteSpace=wrap;fontSize=13;strokeOpacity=100;strokeWidth=3.8;rounded=1;arcSize=60;edgeStyle=orthogonalEdgeStyle;startArrow=none;endArrow=none;exitX=1.021;exitY=0.5;exitPerimeter=0;entryX=0;entryY=0.5;lucidId=~.tMrgyV5jGR;entryDx=0;entryDy=0;" parent="1" source="_f4fuNwBUE6-upE0QbV--15" target="_f4fuNwBUE6-upE0QbV--2" edge="1">
          <mxGeometry width="100" height="100" relative="1" as="geometry">
            <Array as="points" />
            <mxPoint x="973.1399999999999" y="2096" as="targetPoint" />
          </mxGeometry>
        </mxCell>
        <mxCell id="_f4fuNwBUE6-upE0QbV--5" value="" style="html=1;jettySize=18;whiteSpace=wrap;fontSize=13;strokeOpacity=100;strokeWidth=3.8;rounded=1;arcSize=60;edgeStyle=orthogonalEdgeStyle;startArrow=none;endArrow=none;exitX=1.031;exitY=0.5;exitPerimeter=0;entryX=0;entryY=0.5;lucidId=~.tMIspUoFgC;entryDx=0;entryDy=0;" parent="1" source="_f4fuNwBUE6-upE0QbV--2" target="_f4fuNwBUE6-upE0QbV--14" edge="1">
          <mxGeometry width="100" height="100" relative="1" as="geometry">
            <Array as="points" />
            <mxPoint x="1165.1399999999999" y="2096" as="targetPoint" />
          </mxGeometry>
        </mxCell>
        <mxCell id="_f4fuNwBUE6-upE0QbV--8" value="," style="html=1;overflow=block;blockSpacing=1;whiteSpace=wrap;ellipse;fontSize=20;fontColor=default;spacing=3.8;strokeOpacity=100;fillOpacity=100;fillColor=#ffeca9;strokeWidth=3.8;lucidId=~.tM6VV89R2c;" parent="1" vertex="1">
          <mxGeometry x="1076" y="2150" width="60" height="60" as="geometry" />
        </mxCell>
        <mxCell id="_f4fuNwBUE6-upE0QbV--9" value="" style="html=1;jettySize=18;whiteSpace=wrap;fontSize=13;strokeOpacity=100;strokeWidth=3.8;rounded=1;arcSize=60;edgeStyle=orthogonalEdgeStyle;startArrow=none;endArrow=none;entryX=1.031;entryY=0.5;entryPerimeter=0;lucidId=~.tMXez0awr2;exitX=1;exitY=0.5;exitDx=0;exitDy=0;" parent="1" source="_f4fuNwBUE6-upE0QbV--14" target="_f4fuNwBUE6-upE0QbV--8" edge="1">
          <mxGeometry width="100" height="100" relative="1" as="geometry">
            <Array as="points">
              <mxPoint x="1330" y="2096" />
              <mxPoint x="1330" y="2180" />
            </Array>
            <mxPoint x="1440" y="2096" as="sourcePoint" />
          </mxGeometry>
        </mxCell>
        <mxCell id="_f4fuNwBUE6-upE0QbV--10" value="," style="html=1;overflow=block;blockSpacing=1;whiteSpace=wrap;ellipse;fontSize=20;fontColor=default;spacing=3.8;strokeOpacity=100;fillOpacity=100;fillColor=#ffeca9;strokeWidth=3.8;lucidId=~.tMDAFviJyq;" parent="1" vertex="1">
          <mxGeometry x="1073" y="1980" width="60" height="60" as="geometry" />
        </mxCell>
        <mxCell id="_f4fuNwBUE6-upE0QbV--11" value="" style="html=1;jettySize=18;whiteSpace=wrap;fontSize=13;strokeOpacity=100;strokeWidth=3.8;rounded=1;arcSize=60;edgeStyle=orthogonalEdgeStyle;startArrow=none;endArrow=none;exitX=1.021;exitY=0.5;exitPerimeter=0;entryX=1.031;entryY=0.5;entryPerimeter=0;lucidId=~.tM7FWVhYBI;" parent="1" source="_f4fuNwBUE6-upE0QbV--16" target="_f4fuNwBUE6-upE0QbV--10" edge="1">
          <mxGeometry width="100" height="100" relative="1" as="geometry">
            <Array as="points">
              <mxPoint x="1320" y="1935" />
              <mxPoint x="1320" y="2010" />
            </Array>
          </mxGeometry>
        </mxCell>
        <mxCell id="_f4fuNwBUE6-upE0QbV--12" value="" style="html=1;jettySize=18;whiteSpace=wrap;fontSize=13;strokeOpacity=100;strokeWidth=3.8;rounded=1;arcSize=60;edgeStyle=orthogonalEdgeStyle;startArrow=none;endArrow=none;exitX=1.021;exitY=0.5;exitPerimeter=0;entryX=0;entryY=0.5;entryPerimeter=0;lucidId=~.tM86gG2Mg4;" parent="1" source="_f4fuNwBUE6-upE0QbV--16" target="_f4fuNwBUE6-upE0QbV--22" edge="1">
          <mxGeometry width="100" height="100" relative="1" as="geometry">
            <Array as="points">
              <mxPoint x="1650" y="1935" />
              <mxPoint x="1650" y="2213" />
            </Array>
          </mxGeometry>
        </mxCell>
        <mxCell id="_f4fuNwBUE6-upE0QbV--13" value="" style="html=1;jettySize=18;whiteSpace=wrap;fontSize=13;strokeOpacity=100;strokeWidth=3.8;rounded=1;arcSize=84;edgeStyle=orthogonalEdgeStyle;startArrow=none;endArrow=none;entryX=0.188;entryY=0.5;entryPerimeter=0;lucidId=~.tMgJmT4G4G;" parent="1" source="_f4fuNwBUE6-upE0QbV--14" target="_f4fuNwBUE6-upE0QbV--22" edge="1">
          <mxGeometry width="100" height="100" relative="1" as="geometry">
            <Array as="points">
              <mxPoint x="1650" y="2096" />
              <mxPoint x="1650" y="2212" />
            </Array>
            <mxPoint x="1441.8600000000001" y="2096" as="sourcePoint" />
          </mxGeometry>
        </mxCell>
        <mxCell id="_f4fuNwBUE6-upE0QbV--14" value="Value" style="html=1;overflow=block;blockSpacing=1;whiteSpace=wrap;fontSize=20;fontColor=default;spacing=3.8;strokeOpacity=100;fillOpacity=100;fillColor=#c7e8ac;strokeWidth=3.8;lucidId=~.tM9kTKnNlA;" parent="1" vertex="1">
          <mxGeometry x="1200" y="2066" width="90" height="60" as="geometry" />
        </mxCell>
        <mxCell id="_f4fuNwBUE6-upE0QbV--15" value="Key" style="html=1;overflow=block;blockSpacing=1;whiteSpace=wrap;fontSize=20;fontColor=default;spacing=3.8;strokeOpacity=100;fillOpacity=100;fillColor=#c7e8ac;strokeWidth=3.8;lucidId=~.tMATySDNcR;" parent="1" vertex="1">
          <mxGeometry x="910" y="2066" width="90" height="60" as="geometry" />
        </mxCell>
        <mxCell id="_f4fuNwBUE6-upE0QbV--16" value="Value" style="html=1;overflow=block;blockSpacing=1;whiteSpace=wrap;fontSize=20;fontColor=default;spacing=3.8;strokeOpacity=100;fillOpacity=100;fillColor=#c7e8ac;strokeWidth=3.8;lucidId=~.tM_RMryY_O;" parent="1" vertex="1">
          <mxGeometry x="1061" y="1905" width="90" height="60" as="geometry" />
        </mxCell>
        <mxCell id="_f4fuNwBUE6-upE0QbV--21" value="" style="html=1;jettySize=18;whiteSpace=wrap;fontSize=13;strokeOpacity=100;strokeWidth=3.8;rounded=1;arcSize=60;edgeStyle=orthogonalEdgeStyle;startArrow=none;endArrow=none;exitX=0.813;exitY=0.5;exitPerimeter=0;entryX=-0.021;entryY=0.5;entryPerimeter=0;lucidId=~.tMxG1s-68b;" parent="1" source="_f4fuNwBUE6-upE0QbV--23" target="_f4fuNwBUE6-upE0QbV--16" edge="1">
          <mxGeometry width="100" height="100" relative="1" as="geometry">
            <Array as="points">
              <mxPoint x="580" y="2212" />
              <mxPoint x="580" y="1935" />
            </Array>
          </mxGeometry>
        </mxCell>
        <mxCell id="_f4fuNwBUE6-upE0QbV--22" value="" style="html=1;overflow=block;blockSpacing=1;whiteSpace=wrap;shape=image;fontSize=13;spacing=0;strokeColor=none;strokeOpacity=100;strokeWidth=0;image=https://images.lucidchart.com/images/c690ffe0-e577-46db-a130-399a404985b0/content;imageAspect=0;lucidId=~.tM5M.NH-5m;" parent="1" vertex="1">
          <mxGeometry x="1695" y="2190" width="45" height="45" as="geometry" />
        </mxCell>
        <mxCell id="_f4fuNwBUE6-upE0QbV--69" style="html=1;jettySize=18;whiteSpace=wrap;fontSize=13;strokeOpacity=100;strokeWidth=3.8;rounded=1;arcSize=60;edgeStyle=orthogonalEdgeStyle;startArrow=none;endArrow=none;lucidId=~.tMXez0awr2;entryX=0;entryY=0.5;entryDx=0;entryDy=0;" parent="1" source="_f4fuNwBUE6-upE0QbV--23" target="_f4fuNwBUE6-upE0QbV--15" edge="1">
          <mxGeometry relative="1" as="geometry">
            <Array as="points">
              <mxPoint x="580" y="2212" />
              <mxPoint x="580" y="2096" />
            </Array>
          </mxGeometry>
        </mxCell>
        <mxCell id="_f4fuNwBUE6-upE0QbV--23" value="" style="html=1;overflow=block;blockSpacing=1;whiteSpace=wrap;shape=image;fontSize=13;spacing=0;strokeColor=none;strokeOpacity=100;strokeWidth=0;image=https://images.lucidchart.com/images/c690ffe0-e577-46db-a130-399a404985b0/content;imageAspect=0;lucidId=~.tMJDgf0FO~;" parent="1" vertex="1">
          <mxGeometry x="390" y="2190" width="45" height="45" as="geometry" />
        </mxCell>
        <mxCell id="_f4fuNwBUE6-upE0QbV--24" value="" style="html=1;overflow=block;blockSpacing=1;whiteSpace=wrap;fontSize=13;align=right;spacing=3.8;verticalAlign=top;strokeOpacity=0;fillOpacity=0;fillColor=#ffffff;strokeWidth=3.8;lucidId=~.tMQWqPwYYz;" parent="1" vertex="1">
          <mxGeometry x="550" y="2030" width="30" height="80" as="geometry" />
        </mxCell>
        <mxCell id="_f4fuNwBUE6-upE0QbV--25" value="" style="html=1;jettySize=18;whiteSpace=wrap;fontSize=13;strokeOpacity=100;strokeWidth=3.8;rounded=1;arcSize=60;edgeStyle=orthogonalEdgeStyle;startArrow=none;endArrow=none;exitX=1.021;exitY=0.5;exitPerimeter=0;lucidId=~.tMZOlFB3tq;" parent="1" source="_f4fuNwBUE6-upE0QbV--16" edge="1">
          <mxGeometry width="100" height="100" relative="1" as="geometry">
            <Array as="points" />
            <mxPoint x="1196" y="1935" as="targetPoint" />
          </mxGeometry>
        </mxCell>
        <mxCell id="_f4fuNwBUE6-upE0QbV--27" value=":" style="html=1;overflow=block;blockSpacing=1;whiteSpace=wrap;ellipse;fontSize=20;fontColor=default;spacing=3.8;strokeOpacity=100;fillOpacity=100;fillColor=#ffeca9;strokeWidth=3.8;lucidId=t~tMEjivBE4k;" parent="1" vertex="1">
          <mxGeometry x="1084" y="2426" width="60" height="60" as="geometry" />
        </mxCell>
        <mxCell id="_f4fuNwBUE6-upE0QbV--29" value="" style="html=1;jettySize=18;whiteSpace=wrap;fontSize=13;strokeOpacity=100;strokeWidth=3.8;rounded=1;arcSize=60;edgeStyle=orthogonalEdgeStyle;startArrow=none;endArrow=none;exitX=1.021;exitY=0.5;exitPerimeter=0;lucidId=t~tMZwiH4.Hj;entryX=0;entryY=0.5;entryDx=0;entryDy=0;" parent="1" source="_f4fuNwBUE6-upE0QbV--43" target="_f4fuNwBUE6-upE0QbV--27" edge="1">
          <mxGeometry width="100" height="100" relative="1" as="geometry">
            <Array as="points" />
            <mxPoint x="981" y="2456" as="targetPoint" />
          </mxGeometry>
        </mxCell>
        <mxCell id="_f4fuNwBUE6-upE0QbV--31" value="" style="html=1;jettySize=18;whiteSpace=wrap;fontSize=13;strokeOpacity=100;strokeWidth=3.8;rounded=1;arcSize=60;edgeStyle=orthogonalEdgeStyle;startArrow=none;endArrow=none;exitX=1.031;exitY=0.5;exitPerimeter=0;entryX=0;entryY=0.5;lucidId=t~tM~u4uyQLa;entryDx=0;entryDy=0;" parent="1" source="_f4fuNwBUE6-upE0QbV--27" target="_f4fuNwBUE6-upE0QbV--42" edge="1">
          <mxGeometry width="100" height="100" relative="1" as="geometry">
            <Array as="points" />
            <mxPoint x="1173.14" y="2456" as="targetPoint" />
          </mxGeometry>
        </mxCell>
        <mxCell id="_f4fuNwBUE6-upE0QbV--34" value="," style="html=1;overflow=block;blockSpacing=1;whiteSpace=wrap;ellipse;fontSize=20;fontColor=default;spacing=3.8;strokeOpacity=100;fillOpacity=100;fillColor=#ffeca9;strokeWidth=3.8;lucidId=t~tMsdLlej17;" parent="1" vertex="1">
          <mxGeometry x="1084" y="2501" width="60" height="60" as="geometry" />
        </mxCell>
        <mxCell id="_f4fuNwBUE6-upE0QbV--36" value="" style="html=1;jettySize=18;whiteSpace=wrap;fontSize=13;strokeOpacity=100;strokeWidth=3.8;rounded=1;arcSize=60;edgeStyle=orthogonalEdgeStyle;startArrow=none;endArrow=none;exitX=-0.031;exitY=0.5;exitPerimeter=0;entryX=0;entryY=0.5;lucidId=t~tMXZe4Mbsm;entryDx=0;entryDy=0;" parent="1" source="_f4fuNwBUE6-upE0QbV--34" target="_f4fuNwBUE6-upE0QbV--43" edge="1">
          <mxGeometry width="100" height="100" relative="1" as="geometry">
            <Array as="points">
              <mxPoint x="820" y="2531" />
              <mxPoint x="820" y="2456" />
            </Array>
            <mxPoint x="773.1399999999999" y="2456" as="targetPoint" />
          </mxGeometry>
        </mxCell>
        <mxCell id="_f4fuNwBUE6-upE0QbV--37" value="," style="html=1;overflow=block;blockSpacing=1;whiteSpace=wrap;ellipse;fontSize=20;fontColor=default;spacing=3.8;strokeOpacity=100;fillOpacity=100;fillColor=#ffeca9;strokeWidth=3.8;lucidId=t~tM6jy4L.R7;" parent="1" vertex="1">
          <mxGeometry x="1081" y="2340" width="60" height="60" as="geometry" />
        </mxCell>
        <mxCell id="_f4fuNwBUE6-upE0QbV--38" value="" style="html=1;jettySize=18;whiteSpace=wrap;fontSize=13;strokeOpacity=100;strokeWidth=3.8;rounded=1;arcSize=60;edgeStyle=orthogonalEdgeStyle;startArrow=none;endArrow=none;exitX=1;exitY=0.5;entryX=1.031;entryY=0.5;entryPerimeter=0;lucidId=t~tMG~alUbKt;exitDx=0;exitDy=0;" parent="1" source="_f4fuNwBUE6-upE0QbV--44" target="_f4fuNwBUE6-upE0QbV--37" edge="1">
          <mxGeometry width="100" height="100" relative="1" as="geometry">
            <Array as="points">
              <mxPoint x="1310" y="2295" />
              <mxPoint x="1310" y="2370" />
            </Array>
            <mxPoint x="1268.8599999999997" y="2295" as="sourcePoint" />
          </mxGeometry>
        </mxCell>
        <mxCell id="_f4fuNwBUE6-upE0QbV--39" value="" style="html=1;jettySize=18;whiteSpace=wrap;fontSize=13;strokeOpacity=100;strokeWidth=3.8;rounded=1;arcSize=60;edgeStyle=orthogonalEdgeStyle;startArrow=none;endArrow=none;exitX=-0.031;exitY=0.5;exitPerimeter=0;entryX=0;entryY=0.5;lucidId=t~tMc1Mgbz2u;entryDx=0;entryDy=0;" parent="1" source="_f4fuNwBUE6-upE0QbV--37" target="_f4fuNwBUE6-upE0QbV--44" edge="1">
          <mxGeometry width="100" height="100" relative="1" as="geometry">
            <Array as="points">
              <mxPoint x="820" y="2370" />
              <mxPoint x="820" y="2295" />
            </Array>
            <mxPoint x="962.1399999999999" y="2295" as="targetPoint" />
          </mxGeometry>
        </mxCell>
        <mxCell id="_f4fuNwBUE6-upE0QbV--40" value="" style="html=1;jettySize=18;whiteSpace=wrap;fontSize=13;strokeOpacity=100;strokeWidth=3.8;rounded=1;arcSize=60;edgeStyle=orthogonalEdgeStyle;startArrow=none;endArrow=none;exitX=1.031;exitY=0.5;exitPerimeter=0;entryX=-0.031;entryY=0.5;entryPerimeter=0;lucidId=t~tMpF_9RFtC;" parent="1" target="_f4fuNwBUE6-upE0QbV--57" edge="1">
          <mxGeometry width="100" height="100" relative="1" as="geometry">
            <Array as="points">
              <mxPoint x="1510" y="2295" />
              <mxPoint x="1510" y="2456" />
            </Array>
            <mxPoint x="1268.8599999999997" y="2295" as="sourcePoint" />
          </mxGeometry>
        </mxCell>
        <mxCell id="_f4fuNwBUE6-upE0QbV--41" value="" style="html=1;jettySize=18;whiteSpace=wrap;fontSize=13;strokeOpacity=100;strokeWidth=3.8;rounded=1;arcSize=84;edgeStyle=orthogonalEdgeStyle;startArrow=none;endArrow=none;entryX=-0.031;entryY=0.5;entryPerimeter=0;lucidId=t~tMOgFuUpit;" parent="1" source="_f4fuNwBUE6-upE0QbV--42" target="_f4fuNwBUE6-upE0QbV--57" edge="1">
          <mxGeometry width="100" height="100" relative="1" as="geometry">
            <Array as="points" />
            <mxPoint x="1449.8600000000001" y="2456" as="sourcePoint" />
          </mxGeometry>
        </mxCell>
        <mxCell id="_f4fuNwBUE6-upE0QbV--42" value="Value" style="html=1;overflow=block;blockSpacing=1;whiteSpace=wrap;fontSize=20;fontColor=default;spacing=3.8;strokeOpacity=100;fillOpacity=100;fillColor=#c7e8ac;strokeWidth=3.8;lucidId=t~tMsE-9kuRL;" parent="1" vertex="1">
          <mxGeometry x="1200" y="2426" width="90" height="60" as="geometry" />
        </mxCell>
        <mxCell id="_f4fuNwBUE6-upE0QbV--43" value="Key" style="html=1;overflow=block;blockSpacing=1;whiteSpace=wrap;fontSize=20;fontColor=default;spacing=3.8;strokeOpacity=100;fillOpacity=100;fillColor=#c7e8ac;strokeWidth=3.8;lucidId=t~tMxn2.CMLu;" parent="1" vertex="1">
          <mxGeometry x="910" y="2426" width="90" height="60" as="geometry" />
        </mxCell>
        <mxCell id="_f4fuNwBUE6-upE0QbV--44" value="Value" style="html=1;overflow=block;blockSpacing=1;whiteSpace=wrap;fontSize=20;fontColor=default;spacing=3.8;strokeOpacity=100;fillOpacity=100;fillColor=#c7e8ac;strokeWidth=3.8;lucidId=t~tMngaX4Lck;" parent="1" vertex="1">
          <mxGeometry x="1070" y="2265" width="90" height="60" as="geometry" />
        </mxCell>
        <mxCell id="_f4fuNwBUE6-upE0QbV--51" value="" style="html=1;jettySize=18;whiteSpace=wrap;fontSize=13;strokeOpacity=100;strokeWidth=3.8;rounded=1;arcSize=60;edgeStyle=orthogonalEdgeStyle;startArrow=none;endArrow=none;exitX=-0.031;exitY=0.5;exitPerimeter=0;entryX=0;entryY=0.5;lucidId=t~tMV6yaYWqq;entryDx=0;entryDy=0;" parent="1" source="_f4fuNwBUE6-upE0QbV--37" target="_f4fuNwBUE6-upE0QbV--43" edge="1">
          <mxGeometry width="100" height="100" relative="1" as="geometry">
            <Array as="points">
              <mxPoint x="820" y="2370" />
              <mxPoint x="820" y="2456" />
            </Array>
            <mxPoint x="773.1399999999999" y="2456" as="targetPoint" />
          </mxGeometry>
        </mxCell>
        <mxCell id="_f4fuNwBUE6-upE0QbV--55" value="" style="html=1;jettySize=18;whiteSpace=wrap;fontSize=13;strokeOpacity=100;strokeWidth=3.8;rounded=1;arcSize=60;edgeStyle=orthogonalEdgeStyle;startArrow=none;endArrow=none;exitX=0.813;exitY=0.5;exitPerimeter=0;entryX=-0.031;entryY=0.5;entryPerimeter=0;lucidId=t~tMZJfN0c6L;" parent="1" source="_f4fuNwBUE6-upE0QbV--23" target="_f4fuNwBUE6-upE0QbV--56" edge="1">
          <mxGeometry width="100" height="100" relative="1" as="geometry">
            <Array as="points">
              <mxPoint x="580" y="2212" />
              <mxPoint x="580" y="2456" />
            </Array>
          </mxGeometry>
        </mxCell>
        <mxCell id="_f4fuNwBUE6-upE0QbV--56" value="{" style="html=1;overflow=block;blockSpacing=1;whiteSpace=wrap;ellipse;fontSize=20;fontColor=default;spacing=3.8;strokeOpacity=100;fillOpacity=100;fillColor=#ffeca9;strokeWidth=3.8;lucidId=pbuMk-r_Q8J8;" parent="1" vertex="1">
          <mxGeometry x="615" y="2426" width="60" height="60" as="geometry" />
        </mxCell>
        <mxCell id="_f4fuNwBUE6-upE0QbV--57" value="}" style="html=1;overflow=block;blockSpacing=1;whiteSpace=wrap;ellipse;fontSize=20;fontColor=default;spacing=3.8;strokeOpacity=100;fillOpacity=100;fillColor=#ffeca9;strokeWidth=3.8;lucidId=FbuMMgUrrMQn;" parent="1" vertex="1">
          <mxGeometry x="1553" y="2426" width="60" height="60" as="geometry" />
        </mxCell>
        <mxCell id="_f4fuNwBUE6-upE0QbV--58" value="" style="html=1;jettySize=18;whiteSpace=wrap;fontSize=13;strokeOpacity=100;strokeWidth=3.8;rounded=1;arcSize=60;edgeStyle=orthogonalEdgeStyle;startArrow=none;endArrow=none;exitX=1.031;exitY=0.5;exitPerimeter=0;lucidId=gcuMHWtf07ys;entryX=0;entryY=0.5;entryDx=0;entryDy=0;" parent="1" source="_f4fuNwBUE6-upE0QbV--56" target="_f4fuNwBUE6-upE0QbV--43" edge="1">
          <mxGeometry width="100" height="100" relative="1" as="geometry">
            <Array as="points" />
            <mxPoint x="780" y="2456" as="targetPoint" />
          </mxGeometry>
        </mxCell>
        <mxCell id="_f4fuNwBUE6-upE0QbV--59" value="" style="html=1;jettySize=18;whiteSpace=wrap;fontSize=13;strokeOpacity=100;strokeWidth=3.8;rounded=1;arcSize=60;edgeStyle=orthogonalEdgeStyle;startArrow=none;endArrow=none;exitX=1.031;exitY=0.5;exitPerimeter=0;entryX=-0.031;entryY=0.5;entryPerimeter=0;lucidId=XcuMOZnOnZ.W;" parent="1" source="_f4fuNwBUE6-upE0QbV--56" target="_f4fuNwBUE6-upE0QbV--57" edge="1">
          <mxGeometry width="100" height="100" relative="1" as="geometry">
            <Array as="points">
              <mxPoint x="713" y="2456" />
              <mxPoint x="713" y="2588" />
              <mxPoint x="1508" y="2588" />
              <mxPoint x="1508" y="2456" />
            </Array>
          </mxGeometry>
        </mxCell>
        <mxCell id="_f4fuNwBUE6-upE0QbV--60" value="" style="html=1;jettySize=18;whiteSpace=wrap;fontSize=13;strokeOpacity=100;strokeWidth=3.8;rounded=1;arcSize=60;edgeStyle=orthogonalEdgeStyle;startArrow=none;endArrow=none;exitX=1.031;exitY=0.5;exitPerimeter=0;entryX=0.188;entryY=0.5;entryPerimeter=0;lucidId=6duMOJ8Yvghv;" parent="1" source="_f4fuNwBUE6-upE0QbV--57" target="_f4fuNwBUE6-upE0QbV--22" edge="1">
          <mxGeometry width="100" height="100" relative="1" as="geometry">
            <Array as="points">
              <mxPoint x="1650" y="2456" />
              <mxPoint x="1650" y="2212" />
            </Array>
          </mxGeometry>
        </mxCell>
        <mxCell id="_f4fuNwBUE6-upE0QbV--61" value="object" style="html=1;overflow=block;blockSpacing=1;whiteSpace=wrap;fontSize=20;fontFamily=CPMono_v07 Bold;fontColor=default;align=right;spacing=3.8;verticalAlign=top;strokeOpacity=0;fillOpacity=0;fillColor=#ffffff;strokeWidth=3.8;lucidId=teuMFIX.KSBV;" parent="1" vertex="1">
          <mxGeometry x="450" y="2175" width="90" height="26" as="geometry" />
        </mxCell>
        <mxCell id="_f4fuNwBUE6-upE0QbV--62" value="Closed" style="html=1;overflow=block;blockSpacing=1;whiteSpace=wrap;fontSize=20;fontFamily=Carlito;fontColor=#0c7cba;align=right;spacing=3.8;verticalAlign=top;strokeOpacity=0;fillOpacity=0;rotation=-90;fillColor=#ffffff;strokeWidth=3.8;lucidId=afuMe6hrIxP3;" parent="1" vertex="1">
          <mxGeometry x="508" y="2342" width="90" height="26" as="geometry" />
        </mxCell>
        <mxCell id="_f4fuNwBUE6-upE0QbV--63" value="Open" style="html=1;overflow=block;blockSpacing=1;whiteSpace=wrap;fontSize=20;fontFamily=Carlito;fontColor=#0c7cba;align=right;spacing=3.8;verticalAlign=top;strokeOpacity=0;fillOpacity=0;rotation=-90;fillColor=#ffffff;strokeWidth=3.8;lucidId=qfuMbhKD1sV9;" parent="1" vertex="1">
          <mxGeometry x="526" y="2069" width="55" height="26" as="geometry" />
        </mxCell>
        <mxCell id="_f4fuNwBUE6-upE0QbV--65" value="" style="html=1;jettySize=18;whiteSpace=wrap;fontSize=13;strokeOpacity=100;strokeWidth=3.8;rounded=1;arcSize=60;edgeStyle=orthogonalEdgeStyle;startArrow=none;endArrow=none;entryX=0;entryY=0.5;lucidId=~.tM7FWVhYBI;entryDx=0;entryDy=0;" parent="1" source="_f4fuNwBUE6-upE0QbV--10" target="_f4fuNwBUE6-upE0QbV--15" edge="1">
          <mxGeometry width="100" height="100" relative="1" as="geometry">
            <Array as="points">
              <mxPoint x="820" y="2010" />
              <mxPoint x="820" y="2096" />
            </Array>
            <mxPoint x="1162.8899999999999" y="1945" as="sourcePoint" />
            <mxPoint x="1144.8600000000001" y="2020" as="targetPoint" />
          </mxGeometry>
        </mxCell>
        <mxCell id="_f4fuNwBUE6-upE0QbV--67" value="" style="html=1;jettySize=18;whiteSpace=wrap;fontSize=13;strokeOpacity=100;strokeWidth=3.8;rounded=1;arcSize=60;edgeStyle=orthogonalEdgeStyle;startArrow=none;endArrow=none;lucidId=~.tMXez0awr2;entryX=0;entryY=0.5;entryDx=0;entryDy=0;exitX=0;exitY=0.5;exitDx=0;exitDy=0;" parent="1" source="_f4fuNwBUE6-upE0QbV--15" target="_f4fuNwBUE6-upE0QbV--8" edge="1">
          <mxGeometry width="100" height="100" relative="1" as="geometry">
            <Array as="points">
              <mxPoint x="820" y="2096" />
              <mxPoint x="820" y="2180" />
            </Array>
            <mxPoint x="1300" y="2106" as="sourcePoint" />
            <mxPoint x="1148" y="2181" as="targetPoint" />
          </mxGeometry>
        </mxCell>
        <mxCell id="_f4fuNwBUE6-upE0QbV--73" value="" style="html=1;jettySize=18;whiteSpace=wrap;fontSize=13;strokeOpacity=100;strokeWidth=3.8;rounded=1;arcSize=60;edgeStyle=orthogonalEdgeStyle;startArrow=none;endArrow=none;exitX=0;exitY=0.5;entryX=0;entryY=0.5;lucidId=~.tM7FWVhYBI;exitDx=0;exitDy=0;entryDx=0;entryDy=0;" parent="1" source="_f4fuNwBUE6-upE0QbV--16" target="_f4fuNwBUE6-upE0QbV--10" edge="1">
          <mxGeometry width="100" height="100" relative="1" as="geometry">
            <Array as="points">
              <mxPoint x="820" y="1935" />
              <mxPoint x="820" y="2010" />
            </Array>
            <mxPoint x="1162.8899999999999" y="1945" as="sourcePoint" />
            <mxPoint x="1144.8600000000001" y="2020" as="targetPoint" />
          </mxGeometry>
        </mxCell>
        <mxCell id="_f4fuNwBUE6-upE0QbV--74" value="" style="html=1;jettySize=18;whiteSpace=wrap;fontSize=13;strokeOpacity=100;strokeWidth=3.8;rounded=1;arcSize=60;edgeStyle=orthogonalEdgeStyle;startArrow=none;endArrow=none;exitX=1;exitY=0.5;entryX=1;entryY=0.5;lucidId=t~tMXZe4Mbsm;entryDx=0;entryDy=0;exitDx=0;exitDy=0;" parent="1" source="_f4fuNwBUE6-upE0QbV--34" target="_f4fuNwBUE6-upE0QbV--42" edge="1">
          <mxGeometry width="100" height="100" relative="1" as="geometry">
            <Array as="points">
              <mxPoint x="1144" y="2530" />
              <mxPoint x="1380" y="2530" />
              <mxPoint x="1380" y="2456" />
            </Array>
            <mxPoint x="1092.1399999999999" y="2541" as="sourcePoint" />
            <mxPoint x="920.0000000000002" y="2466" as="targetPoint" />
          </mxGeometry>
        </mxCell>
        <mxCell id="_f4fuNwBUE6-upE0QbV--75" value=":" style="html=1;overflow=block;blockSpacing=1;whiteSpace=wrap;ellipse;fontSize=20;fontColor=default;spacing=3.8;strokeOpacity=100;fillOpacity=100;fillColor=#ffeca9;strokeWidth=3.8;lucidId=~.tMpWqE.7GF;" parent="1" vertex="1">
          <mxGeometry x="593" y="3015" width="60" height="60" as="geometry" />
        </mxCell>
        <mxCell id="_f4fuNwBUE6-upE0QbV--76" value="" style="html=1;jettySize=18;whiteSpace=wrap;fontSize=13;strokeOpacity=100;strokeWidth=3.8;rounded=1;arcSize=60;edgeStyle=orthogonalEdgeStyle;startArrow=none;endArrow=none;exitX=1.021;exitY=0.5;exitPerimeter=0;entryX=0;entryY=0.5;lucidId=~.tMrgyV5jGR;entryDx=0;entryDy=0;" parent="1" source="_f4fuNwBUE6-upE0QbV--85" target="_f4fuNwBUE6-upE0QbV--75" edge="1">
          <mxGeometry width="100" height="100" relative="1" as="geometry">
            <Array as="points" />
            <mxPoint x="490.1399999999999" y="3045" as="targetPoint" />
          </mxGeometry>
        </mxCell>
        <mxCell id="_f4fuNwBUE6-upE0QbV--77" value="" style="html=1;jettySize=18;whiteSpace=wrap;fontSize=13;strokeOpacity=100;strokeWidth=3.8;rounded=1;arcSize=60;edgeStyle=orthogonalEdgeStyle;startArrow=none;endArrow=none;exitX=1.031;exitY=0.5;exitPerimeter=0;entryX=0;entryY=0.5;lucidId=~.tMIspUoFgC;entryDx=0;entryDy=0;" parent="1" source="_f4fuNwBUE6-upE0QbV--75" target="_f4fuNwBUE6-upE0QbV--84" edge="1">
          <mxGeometry width="100" height="100" relative="1" as="geometry">
            <Array as="points" />
            <mxPoint x="682.1399999999999" y="3045" as="targetPoint" />
          </mxGeometry>
        </mxCell>
        <mxCell id="_f4fuNwBUE6-upE0QbV--78" value="," style="html=1;overflow=block;blockSpacing=1;whiteSpace=wrap;ellipse;fontSize=20;fontColor=default;spacing=3.8;strokeOpacity=100;fillOpacity=100;fillColor=#ffeca9;strokeWidth=3.8;lucidId=~.tM6VV89R2c;" parent="1" vertex="1">
          <mxGeometry x="593" y="3099" width="60" height="60" as="geometry" />
        </mxCell>
        <mxCell id="_f4fuNwBUE6-upE0QbV--79" value="" style="html=1;jettySize=18;whiteSpace=wrap;fontSize=13;strokeOpacity=100;strokeWidth=3.8;rounded=1;arcSize=60;edgeStyle=orthogonalEdgeStyle;startArrow=none;endArrow=none;entryX=1.031;entryY=0.5;entryPerimeter=0;lucidId=~.tMXez0awr2;exitX=1;exitY=0.5;exitDx=0;exitDy=0;" parent="1" source="_f4fuNwBUE6-upE0QbV--84" target="_f4fuNwBUE6-upE0QbV--78" edge="1">
          <mxGeometry width="100" height="100" relative="1" as="geometry">
            <Array as="points">
              <mxPoint x="926" y="3045" />
              <mxPoint x="926" y="3129" />
            </Array>
            <mxPoint x="957" y="3045" as="sourcePoint" />
          </mxGeometry>
        </mxCell>
        <mxCell id="_f4fuNwBUE6-upE0QbV--80" value="," style="html=1;overflow=block;blockSpacing=1;whiteSpace=wrap;ellipse;fontSize=20;fontColor=default;spacing=3.8;strokeOpacity=100;fillOpacity=100;fillColor=#ffeca9;strokeWidth=3.8;lucidId=~.tMDAFviJyq;" parent="1" vertex="1">
          <mxGeometry x="590" y="2891" width="60" height="60" as="geometry" />
        </mxCell>
        <mxCell id="_f4fuNwBUE6-upE0QbV--81" value="" style="html=1;jettySize=18;whiteSpace=wrap;fontSize=13;strokeOpacity=100;strokeWidth=3.8;rounded=1;arcSize=60;edgeStyle=orthogonalEdgeStyle;startArrow=none;endArrow=none;exitX=1.021;exitY=0.5;exitPerimeter=0;entryX=1.031;entryY=0.5;entryPerimeter=0;lucidId=~.tM7FWVhYBI;" parent="1" source="_f4fuNwBUE6-upE0QbV--86" target="_f4fuNwBUE6-upE0QbV--80" edge="1">
          <mxGeometry width="100" height="100" relative="1" as="geometry">
            <Array as="points">
              <mxPoint x="837" y="2846" />
              <mxPoint x="837" y="2921" />
            </Array>
          </mxGeometry>
        </mxCell>
        <mxCell id="_f4fuNwBUE6-upE0QbV--82" value="" style="html=1;jettySize=18;whiteSpace=wrap;fontSize=13;strokeOpacity=100;strokeWidth=3.8;rounded=1;arcSize=60;edgeStyle=orthogonalEdgeStyle;startArrow=none;endArrow=none;exitX=1.021;exitY=0.5;exitPerimeter=0;lucidId=~.tM86gG2Mg4;" parent="1" source="_f4fuNwBUE6-upE0QbV--86" target="_f4fuNwBUE6-upE0QbV--88" edge="1">
          <mxGeometry width="100" height="100" relative="1" as="geometry">
            <Array as="points">
              <mxPoint x="838" y="2846" />
              <mxPoint x="838" y="3045" />
            </Array>
          </mxGeometry>
        </mxCell>
        <mxCell id="_f4fuNwBUE6-upE0QbV--83" value="" style="html=1;jettySize=18;whiteSpace=wrap;fontSize=13;strokeOpacity=100;strokeWidth=3.8;rounded=1;arcSize=84;edgeStyle=orthogonalEdgeStyle;startArrow=none;endArrow=none;entryX=0.188;entryY=0.5;entryPerimeter=0;lucidId=~.tMgJmT4G4G;" parent="1" source="_f4fuNwBUE6-upE0QbV--84" target="_f4fuNwBUE6-upE0QbV--88" edge="1">
          <mxGeometry width="100" height="100" relative="1" as="geometry">
            <Array as="points">
              <mxPoint x="971" y="3045" />
              <mxPoint x="971" y="3045" />
            </Array>
            <mxPoint x="958.8600000000001" y="3045" as="sourcePoint" />
          </mxGeometry>
        </mxCell>
        <mxCell id="_f4fuNwBUE6-upE0QbV--84" value="Value" style="html=1;overflow=block;blockSpacing=1;whiteSpace=wrap;fontSize=20;fontColor=default;spacing=3.8;strokeOpacity=100;fillOpacity=100;fillColor=#c7e8ac;strokeWidth=3.8;lucidId=~.tM9kTKnNlA;rounded=1;" parent="1" vertex="1">
          <mxGeometry x="717" y="3015" width="90" height="60" as="geometry" />
        </mxCell>
        <mxCell id="_f4fuNwBUE6-upE0QbV--85" value="Key" style="html=1;overflow=block;blockSpacing=1;whiteSpace=wrap;fontSize=20;fontColor=default;spacing=3.8;strokeOpacity=100;fillOpacity=100;fillColor=#c7e8ac;strokeWidth=3.8;lucidId=~.tMATySDNcR;rounded=1;" parent="1" vertex="1">
          <mxGeometry x="427" y="3015" width="90" height="60" as="geometry" />
        </mxCell>
        <mxCell id="_f4fuNwBUE6-upE0QbV--86" value="Value" style="html=1;overflow=block;blockSpacing=1;whiteSpace=wrap;fontSize=20;fontColor=default;spacing=3.8;strokeOpacity=100;fillOpacity=100;fillColor=#c7e8ac;strokeWidth=3.8;lucidId=~.tM_RMryY_O;rounded=1;" parent="1" vertex="1">
          <mxGeometry x="578" y="2816" width="90" height="60" as="geometry" />
        </mxCell>
        <mxCell id="_f4fuNwBUE6-upE0QbV--87" value="" style="html=1;jettySize=18;whiteSpace=wrap;fontSize=13;strokeOpacity=100;strokeWidth=3.8;rounded=1;arcSize=60;edgeStyle=orthogonalEdgeStyle;startArrow=none;endArrow=none;exitX=0.813;exitY=0.5;exitPerimeter=0;entryX=-0.021;entryY=0.5;entryPerimeter=0;lucidId=~.tMxG1s-68b;" parent="1" source="_f4fuNwBUE6-upE0QbV--90" target="_f4fuNwBUE6-upE0QbV--86" edge="1">
          <mxGeometry width="100" height="100" relative="1" as="geometry">
            <Array as="points">
              <mxPoint x="273" y="3045" />
              <mxPoint x="273" y="2846" />
            </Array>
          </mxGeometry>
        </mxCell>
        <mxCell id="_f4fuNwBUE6-upE0QbV--88" value="" style="html=1;overflow=block;blockSpacing=1;whiteSpace=wrap;shape=image;fontSize=13;spacing=0;strokeColor=none;strokeOpacity=100;strokeWidth=0;image=https://images.lucidchart.com/images/c690ffe0-e577-46db-a130-399a404985b0/content;imageAspect=0;lucidId=~.tM5M.NH-5m;" parent="1" vertex="1">
          <mxGeometry x="1016" y="3022.5" width="45" height="45" as="geometry" />
        </mxCell>
        <mxCell id="_f4fuNwBUE6-upE0QbV--89" style="html=1;jettySize=18;whiteSpace=wrap;fontSize=13;strokeOpacity=100;strokeWidth=3.8;rounded=1;arcSize=60;edgeStyle=orthogonalEdgeStyle;startArrow=none;endArrow=none;lucidId=~.tMXez0awr2;entryX=0;entryY=0.5;entryDx=0;entryDy=0;exitX=1;exitY=0.5;exitDx=0;exitDy=0;" parent="1" source="_f4fuNwBUE6-upE0QbV--90" target="_f4fuNwBUE6-upE0QbV--85" edge="1">
          <mxGeometry relative="1" as="geometry">
            <Array as="points">
              <mxPoint x="225" y="3045" />
            </Array>
          </mxGeometry>
        </mxCell>
        <mxCell id="_f4fuNwBUE6-upE0QbV--90" value="" style="html=1;overflow=block;blockSpacing=1;whiteSpace=wrap;shape=image;fontSize=13;spacing=0;strokeColor=none;strokeOpacity=100;strokeWidth=0;image=https://images.lucidchart.com/images/c690ffe0-e577-46db-a130-399a404985b0/content;imageAspect=0;lucidId=~.tMJDgf0FO~;" parent="1" vertex="1">
          <mxGeometry x="59" y="3022.5" width="45" height="45" as="geometry" />
        </mxCell>
        <mxCell id="_f4fuNwBUE6-upE0QbV--92" value="" style="html=1;jettySize=18;whiteSpace=wrap;fontSize=13;strokeOpacity=100;strokeWidth=3.8;rounded=1;arcSize=60;edgeStyle=orthogonalEdgeStyle;startArrow=none;endArrow=none;exitX=1.021;exitY=0.5;exitPerimeter=0;lucidId=~.tMZOlFB3tq;" parent="1" source="_f4fuNwBUE6-upE0QbV--86" edge="1">
          <mxGeometry width="100" height="100" relative="1" as="geometry">
            <Array as="points" />
            <mxPoint x="713" y="2846" as="targetPoint" />
          </mxGeometry>
        </mxCell>
        <mxCell id="_f4fuNwBUE6-upE0QbV--113" value="Open Object" style="html=1;overflow=block;blockSpacing=1;whiteSpace=wrap;fontSize=20;fontFamily=Helvetica;fontColor=default;align=right;spacing=3.8;verticalAlign=top;strokeOpacity=0;fillOpacity=0;fillColor=#ffffff;strokeWidth=3.8;lucidId=teuMFIX.KSBV;fontStyle=1" parent="1" vertex="1">
          <mxGeometry x="93" y="3012" width="155" height="26" as="geometry" />
        </mxCell>
        <mxCell id="_f4fuNwBUE6-upE0QbV--117" value="" style="html=1;jettySize=18;whiteSpace=wrap;fontSize=13;strokeOpacity=100;strokeWidth=3.8;rounded=1;arcSize=60;edgeStyle=orthogonalEdgeStyle;startArrow=none;endArrow=none;lucidId=~.tMXez0awr2;entryX=0;entryY=0.5;entryDx=0;entryDy=0;exitX=0;exitY=0.5;exitDx=0;exitDy=0;" parent="1" source="_f4fuNwBUE6-upE0QbV--85" target="_f4fuNwBUE6-upE0QbV--78" edge="1">
          <mxGeometry width="100" height="100" relative="1" as="geometry">
            <Array as="points">
              <mxPoint x="337" y="3045" />
              <mxPoint x="337" y="3129" />
            </Array>
            <mxPoint x="817" y="3055" as="sourcePoint" />
            <mxPoint x="665" y="3130" as="targetPoint" />
          </mxGeometry>
        </mxCell>
        <mxCell id="_f4fuNwBUE6-upE0QbV--118" value="" style="html=1;jettySize=18;whiteSpace=wrap;fontSize=13;strokeOpacity=100;strokeWidth=3.8;rounded=1;arcSize=60;edgeStyle=orthogonalEdgeStyle;startArrow=none;endArrow=none;exitX=0;exitY=0.5;entryX=0;entryY=0.5;lucidId=~.tM7FWVhYBI;exitDx=0;exitDy=0;entryDx=0;entryDy=0;" parent="1" source="_f4fuNwBUE6-upE0QbV--86" target="_f4fuNwBUE6-upE0QbV--80" edge="1">
          <mxGeometry width="100" height="100" relative="1" as="geometry">
            <Array as="points">
              <mxPoint x="337" y="2846" />
              <mxPoint x="337" y="2921" />
            </Array>
            <mxPoint x="679.8899999999999" y="2856" as="sourcePoint" />
            <mxPoint x="661.8600000000001" y="2931" as="targetPoint" />
          </mxGeometry>
        </mxCell>
        <mxCell id="_f4fuNwBUE6-upE0QbV--121" value=":" style="html=1;overflow=block;blockSpacing=1;whiteSpace=wrap;ellipse;fontSize=20;fontColor=default;spacing=3.8;strokeOpacity=100;fillOpacity=100;fillColor=#ffeca9;strokeWidth=3.8;lucidId=~.tMpWqE.7GF;" parent="1" vertex="1">
          <mxGeometry x="1108" y="3675" width="60" height="60" as="geometry" />
        </mxCell>
        <mxCell id="_f4fuNwBUE6-upE0QbV--122" value="" style="html=1;jettySize=18;whiteSpace=wrap;fontSize=13;strokeOpacity=100;strokeWidth=3.8;rounded=1;arcSize=60;edgeStyle=orthogonalEdgeStyle;startArrow=none;endArrow=none;exitX=1.021;exitY=0.5;exitPerimeter=0;entryX=0;entryY=0.5;lucidId=~.tMrgyV5jGR;entryDx=0;entryDy=0;" parent="1" source="_f4fuNwBUE6-upE0QbV--131" target="_f4fuNwBUE6-upE0QbV--121" edge="1">
          <mxGeometry width="100" height="100" relative="1" as="geometry">
            <Array as="points" />
            <mxPoint x="1005.1399999999999" y="3705" as="targetPoint" />
          </mxGeometry>
        </mxCell>
        <mxCell id="_f4fuNwBUE6-upE0QbV--123" value="" style="html=1;jettySize=18;whiteSpace=wrap;fontSize=13;strokeOpacity=100;strokeWidth=3.8;rounded=1;arcSize=60;edgeStyle=orthogonalEdgeStyle;startArrow=none;endArrow=none;exitX=1.031;exitY=0.5;exitPerimeter=0;entryX=0;entryY=0.5;lucidId=~.tMIspUoFgC;entryDx=0;entryDy=0;" parent="1" source="_f4fuNwBUE6-upE0QbV--121" target="_f4fuNwBUE6-upE0QbV--130" edge="1">
          <mxGeometry width="100" height="100" relative="1" as="geometry">
            <Array as="points" />
            <mxPoint x="1197.1399999999999" y="3705" as="targetPoint" />
          </mxGeometry>
        </mxCell>
        <mxCell id="_f4fuNwBUE6-upE0QbV--124" value="," style="html=1;overflow=block;blockSpacing=1;whiteSpace=wrap;ellipse;fontSize=20;fontColor=default;spacing=3.8;strokeOpacity=100;fillOpacity=100;fillColor=#ffeca9;strokeWidth=3.8;lucidId=~.tM6VV89R2c;" parent="1" vertex="1">
          <mxGeometry x="1108" y="3759" width="60" height="60" as="geometry" />
        </mxCell>
        <mxCell id="_f4fuNwBUE6-upE0QbV--125" value="" style="html=1;jettySize=18;whiteSpace=wrap;fontSize=13;strokeOpacity=100;strokeWidth=3.8;rounded=1;arcSize=60;edgeStyle=orthogonalEdgeStyle;startArrow=none;endArrow=none;entryX=1.031;entryY=0.5;entryPerimeter=0;lucidId=~.tMXez0awr2;exitX=1;exitY=0.5;exitDx=0;exitDy=0;" parent="1" source="_f4fuNwBUE6-upE0QbV--130" target="_f4fuNwBUE6-upE0QbV--124" edge="1">
          <mxGeometry width="100" height="100" relative="1" as="geometry">
            <Array as="points">
              <mxPoint x="1441" y="3705" />
              <mxPoint x="1441" y="3789" />
            </Array>
            <mxPoint x="1472" y="3705" as="sourcePoint" />
          </mxGeometry>
        </mxCell>
        <mxCell id="_f4fuNwBUE6-upE0QbV--126" value="," style="html=1;overflow=block;blockSpacing=1;whiteSpace=wrap;ellipse;fontSize=20;fontColor=default;spacing=3.8;strokeOpacity=100;fillOpacity=100;fillColor=#ffeca9;strokeWidth=3.8;lucidId=~.tMDAFviJyq;" parent="1" vertex="1">
          <mxGeometry x="1105" y="3549" width="60" height="60" as="geometry" />
        </mxCell>
        <mxCell id="_f4fuNwBUE6-upE0QbV--127" value="" style="html=1;jettySize=18;whiteSpace=wrap;fontSize=13;strokeOpacity=100;strokeWidth=3.8;rounded=1;arcSize=60;edgeStyle=orthogonalEdgeStyle;startArrow=none;endArrow=none;exitX=1.021;exitY=0.5;exitPerimeter=0;entryX=1.031;entryY=0.5;entryPerimeter=0;lucidId=~.tM7FWVhYBI;" parent="1" source="_f4fuNwBUE6-upE0QbV--132" target="_f4fuNwBUE6-upE0QbV--126" edge="1">
          <mxGeometry width="100" height="100" relative="1" as="geometry">
            <Array as="points">
              <mxPoint x="1352" y="3504" />
              <mxPoint x="1352" y="3579" />
            </Array>
          </mxGeometry>
        </mxCell>
        <mxCell id="_f4fuNwBUE6-upE0QbV--128" value="" style="html=1;jettySize=18;whiteSpace=wrap;fontSize=13;strokeOpacity=100;strokeWidth=3.8;rounded=1;arcSize=60;edgeStyle=orthogonalEdgeStyle;startArrow=none;endArrow=none;exitX=1.021;exitY=0.5;exitPerimeter=0;lucidId=~.tM86gG2Mg4;" parent="1" source="_f4fuNwBUE6-upE0QbV--132" target="_f4fuNwBUE6-upE0QbV--134" edge="1">
          <mxGeometry width="100" height="100" relative="1" as="geometry">
            <Array as="points">
              <mxPoint x="1353" y="3504" />
              <mxPoint x="1353" y="3705" />
            </Array>
          </mxGeometry>
        </mxCell>
        <mxCell id="_f4fuNwBUE6-upE0QbV--129" value="" style="html=1;jettySize=18;whiteSpace=wrap;fontSize=13;strokeOpacity=100;strokeWidth=3.8;rounded=1;arcSize=84;edgeStyle=orthogonalEdgeStyle;startArrow=none;endArrow=none;entryX=0.188;entryY=0.5;entryPerimeter=0;lucidId=~.tMgJmT4G4G;" parent="1" source="_f4fuNwBUE6-upE0QbV--130" target="_f4fuNwBUE6-upE0QbV--134" edge="1">
          <mxGeometry width="100" height="100" relative="1" as="geometry">
            <Array as="points">
              <mxPoint x="1486" y="3705" />
              <mxPoint x="1486" y="3705" />
            </Array>
            <mxPoint x="1473.8600000000001" y="3705" as="sourcePoint" />
          </mxGeometry>
        </mxCell>
        <mxCell id="_f4fuNwBUE6-upE0QbV--130" value="Value" style="html=1;overflow=block;blockSpacing=1;whiteSpace=wrap;fontSize=20;fontColor=default;spacing=3.8;strokeOpacity=100;fillOpacity=100;fillColor=#c7e8ac;strokeWidth=3.8;lucidId=~.tM9kTKnNlA;" parent="1" vertex="1">
          <mxGeometry x="1232" y="3675" width="90" height="60" as="geometry" />
        </mxCell>
        <mxCell id="_f4fuNwBUE6-upE0QbV--131" value="Key" style="html=1;overflow=block;blockSpacing=1;whiteSpace=wrap;fontSize=20;fontColor=default;spacing=3.8;strokeOpacity=100;fillOpacity=100;fillColor=#c7e8ac;strokeWidth=3.8;lucidId=~.tMATySDNcR;" parent="1" vertex="1">
          <mxGeometry x="942" y="3675" width="90" height="60" as="geometry" />
        </mxCell>
        <mxCell id="_f4fuNwBUE6-upE0QbV--132" value="Value" style="html=1;overflow=block;blockSpacing=1;whiteSpace=wrap;fontSize=20;fontColor=default;spacing=3.8;strokeOpacity=100;fillOpacity=100;fillColor=#c7e8ac;strokeWidth=3.8;lucidId=~.tM_RMryY_O;" parent="1" vertex="1">
          <mxGeometry x="1093" y="3474" width="90" height="60" as="geometry" />
        </mxCell>
        <mxCell id="_f4fuNwBUE6-upE0QbV--133" value="" style="html=1;jettySize=18;whiteSpace=wrap;fontSize=13;strokeOpacity=100;strokeWidth=3.8;rounded=1;arcSize=60;edgeStyle=orthogonalEdgeStyle;startArrow=none;endArrow=none;exitX=0.813;exitY=0.5;exitPerimeter=0;entryX=-0.021;entryY=0.5;entryPerimeter=0;lucidId=~.tMxG1s-68b;" parent="1" source="_f4fuNwBUE6-upE0QbV--136" target="_f4fuNwBUE6-upE0QbV--132" edge="1">
          <mxGeometry width="100" height="100" relative="1" as="geometry">
            <Array as="points">
              <mxPoint x="788" y="3705" />
              <mxPoint x="788" y="3504" />
            </Array>
          </mxGeometry>
        </mxCell>
        <mxCell id="_f4fuNwBUE6-upE0QbV--134" value="" style="html=1;overflow=block;blockSpacing=1;whiteSpace=wrap;shape=image;fontSize=13;spacing=0;strokeColor=none;strokeOpacity=100;strokeWidth=0;image=https://images.lucidchart.com/images/c690ffe0-e577-46db-a130-399a404985b0/content;imageAspect=0;lucidId=~.tM5M.NH-5m;" parent="1" vertex="1">
          <mxGeometry x="1558" y="3682.5" width="45" height="45" as="geometry" />
        </mxCell>
        <mxCell id="_f4fuNwBUE6-upE0QbV--135" style="html=1;jettySize=18;whiteSpace=wrap;fontSize=13;strokeOpacity=100;strokeWidth=3.8;rounded=1;arcSize=60;edgeStyle=orthogonalEdgeStyle;startArrow=none;endArrow=none;lucidId=~.tMXez0awr2;entryX=0;entryY=0.5;entryDx=0;entryDy=0;exitX=1;exitY=0.5;exitDx=0;exitDy=0;" parent="1" source="_f4fuNwBUE6-upE0QbV--143" target="_f4fuNwBUE6-upE0QbV--131" edge="1">
          <mxGeometry relative="1" as="geometry">
            <Array as="points">
              <mxPoint x="740" y="3705" />
            </Array>
          </mxGeometry>
        </mxCell>
        <mxCell id="_f4fuNwBUE6-upE0QbV--136" value="" style="html=1;overflow=block;blockSpacing=1;whiteSpace=wrap;shape=image;fontSize=13;spacing=0;strokeColor=none;strokeOpacity=100;strokeWidth=0;image=https://images.lucidchart.com/images/c690ffe0-e577-46db-a130-399a404985b0/content;imageAspect=0;lucidId=~.tMJDgf0FO~;" parent="1" vertex="1">
          <mxGeometry x="550" y="3682.5" width="45" height="45" as="geometry" />
        </mxCell>
        <mxCell id="_f4fuNwBUE6-upE0QbV--137" value="" style="html=1;jettySize=18;whiteSpace=wrap;fontSize=13;strokeOpacity=100;strokeWidth=3.8;rounded=1;arcSize=60;edgeStyle=orthogonalEdgeStyle;startArrow=none;endArrow=none;exitX=1.021;exitY=0.5;exitPerimeter=0;lucidId=~.tMZOlFB3tq;" parent="1" source="_f4fuNwBUE6-upE0QbV--132" edge="1">
          <mxGeometry width="100" height="100" relative="1" as="geometry">
            <Array as="points" />
            <mxPoint x="1228" y="3504" as="targetPoint" />
          </mxGeometry>
        </mxCell>
        <mxCell id="_f4fuNwBUE6-upE0QbV--138" value="object" style="html=1;overflow=block;blockSpacing=1;whiteSpace=wrap;fontSize=20;fontFamily=CPMono_v07 Bold;fontColor=default;align=right;spacing=3.8;verticalAlign=top;strokeOpacity=0;fillOpacity=0;fillColor=#ffffff;strokeWidth=3.8;lucidId=teuMFIX.KSBV;fontStyle=1" parent="1" vertex="1">
          <mxGeometry x="583" y="3675" width="78" height="26" as="geometry" />
        </mxCell>
        <mxCell id="_f4fuNwBUE6-upE0QbV--139" value="" style="html=1;jettySize=18;whiteSpace=wrap;fontSize=13;strokeOpacity=100;strokeWidth=3.8;rounded=1;arcSize=60;edgeStyle=orthogonalEdgeStyle;startArrow=none;endArrow=none;lucidId=~.tMXez0awr2;entryX=0;entryY=0.5;entryDx=0;entryDy=0;exitX=0;exitY=0.5;exitDx=0;exitDy=0;" parent="1" source="_f4fuNwBUE6-upE0QbV--131" target="_f4fuNwBUE6-upE0QbV--124" edge="1">
          <mxGeometry width="100" height="100" relative="1" as="geometry">
            <Array as="points">
              <mxPoint x="852" y="3705" />
              <mxPoint x="852" y="3789" />
            </Array>
            <mxPoint x="1332" y="3715" as="sourcePoint" />
            <mxPoint x="1180" y="3790" as="targetPoint" />
          </mxGeometry>
        </mxCell>
        <mxCell id="_f4fuNwBUE6-upE0QbV--140" value="" style="html=1;jettySize=18;whiteSpace=wrap;fontSize=13;strokeOpacity=100;strokeWidth=3.8;rounded=1;arcSize=60;edgeStyle=orthogonalEdgeStyle;startArrow=none;endArrow=none;exitX=0;exitY=0.5;entryX=0;entryY=0.5;lucidId=~.tM7FWVhYBI;exitDx=0;exitDy=0;entryDx=0;entryDy=0;" parent="1" source="_f4fuNwBUE6-upE0QbV--132" target="_f4fuNwBUE6-upE0QbV--126" edge="1">
          <mxGeometry width="100" height="100" relative="1" as="geometry">
            <Array as="points">
              <mxPoint x="852" y="3504" />
              <mxPoint x="852" y="3579" />
            </Array>
            <mxPoint x="1194.8899999999999" y="3514" as="sourcePoint" />
            <mxPoint x="1176.8600000000001" y="3589" as="targetPoint" />
          </mxGeometry>
        </mxCell>
        <mxCell id="_f4fuNwBUE6-upE0QbV--142" value="}" style="html=1;overflow=block;blockSpacing=1;whiteSpace=wrap;ellipse;fontSize=20;fontColor=default;spacing=3.8;strokeOpacity=100;fillOpacity=100;fillColor=#ffeca9;strokeWidth=3.8;lucidId=FbuMMgUrrMQn;" parent="1" vertex="1">
          <mxGeometry x="1475" y="3675" width="60" height="60" as="geometry" />
        </mxCell>
        <mxCell id="_f4fuNwBUE6-upE0QbV--144" value="" style="html=1;jettySize=18;whiteSpace=wrap;fontSize=13;strokeOpacity=100;strokeWidth=3.8;rounded=1;arcSize=60;edgeStyle=orthogonalEdgeStyle;startArrow=none;endArrow=none;lucidId=~.tMXez0awr2;entryX=0;entryY=0.5;entryDx=0;entryDy=0;exitX=1;exitY=0.5;exitDx=0;exitDy=0;" parent="1" source="_f4fuNwBUE6-upE0QbV--136" target="_f4fuNwBUE6-upE0QbV--143" edge="1">
          <mxGeometry relative="1" as="geometry">
            <mxPoint x="595" y="3705" as="sourcePoint" />
            <mxPoint x="942" y="3705" as="targetPoint" />
            <Array as="points" />
          </mxGeometry>
        </mxCell>
        <mxCell id="_f4fuNwBUE6-upE0QbV--143" value="{" style="html=1;overflow=block;blockSpacing=1;whiteSpace=wrap;ellipse;fontSize=20;fontColor=default;spacing=3.8;strokeOpacity=100;fillOpacity=100;fillColor=#ffeca9;strokeWidth=3.8;lucidId=pbuMk-r_Q8J8;" parent="1" vertex="1">
          <mxGeometry x="678" y="3675" width="60" height="60" as="geometry" />
        </mxCell>
        <mxCell id="P5vw7CUGjnSHWgnjB4UO-3" value="" style="html=1;jettySize=18;whiteSpace=wrap;fontSize=13;strokeOpacity=100;strokeWidth=3.8;rounded=1;arcSize=60;edgeStyle=orthogonalEdgeStyle;startArrow=none;endArrow=none;exitX=1;exitY=0.5;entryX=0;entryY=0.5;lucidId=~.tM7FWVhYBI;entryDx=0;entryDy=0;exitDx=0;exitDy=0;" parent="1" source="_f4fuNwBUE6-upE0QbV--80" target="_f4fuNwBUE6-upE0QbV--80" edge="1">
          <mxGeometry width="100" height="100" relative="1" as="geometry">
            <Array as="points">
              <mxPoint x="688" y="2921" />
              <mxPoint x="688" y="2976" />
              <mxPoint x="551" y="2976" />
              <mxPoint x="551" y="2921" />
            </Array>
            <mxPoint x="680" y="2856" as="sourcePoint" />
            <mxPoint x="662" y="2931" as="targetPoint" />
          </mxGeometry>
        </mxCell>
        <mxCell id="P5vw7CUGjnSHWgnjB4UO-4" value="" style="html=1;jettySize=18;whiteSpace=wrap;fontSize=13;strokeOpacity=100;strokeWidth=3.8;rounded=1;arcSize=60;edgeStyle=orthogonalEdgeStyle;startArrow=none;endArrow=none;lucidId=~.tM7FWVhYBI;" parent="1" source="_f4fuNwBUE6-upE0QbV--78" target="_f4fuNwBUE6-upE0QbV--78" edge="1">
          <mxGeometry width="100" height="100" relative="1" as="geometry">
            <Array as="points">
              <mxPoint x="692" y="3127" />
              <mxPoint x="692" y="3182" />
              <mxPoint x="555" y="3182" />
              <mxPoint x="555" y="3127" />
            </Array>
            <mxPoint x="653.5" y="3127" as="sourcePoint" />
            <mxPoint x="593.5" y="3127" as="targetPoint" />
          </mxGeometry>
        </mxCell>
        <mxCell id="P5vw7CUGjnSHWgnjB4UO-5" value="" style="html=1;jettySize=18;whiteSpace=wrap;fontSize=13;strokeOpacity=100;strokeWidth=3.8;rounded=1;arcSize=60;edgeStyle=orthogonalEdgeStyle;startArrow=none;endArrow=none;lucidId=~.tM7FWVhYBI;" parent="1" source="_f4fuNwBUE6-upE0QbV--126" target="_f4fuNwBUE6-upE0QbV--126" edge="1">
          <mxGeometry width="100" height="100" relative="1" as="geometry">
            <Array as="points">
              <mxPoint x="1200" y="3582" />
              <mxPoint x="1200" y="3637" />
              <mxPoint x="1063" y="3637" />
              <mxPoint x="1063" y="3582" />
            </Array>
            <mxPoint x="1162" y="3582" as="sourcePoint" />
            <mxPoint x="1102" y="3582" as="targetPoint" />
          </mxGeometry>
        </mxCell>
        <mxCell id="P5vw7CUGjnSHWgnjB4UO-6" value="" style="html=1;jettySize=18;whiteSpace=wrap;fontSize=13;strokeOpacity=100;strokeWidth=3.8;rounded=1;arcSize=60;edgeStyle=orthogonalEdgeStyle;startArrow=none;endArrow=none;lucidId=~.tM7FWVhYBI;" parent="1" source="_f4fuNwBUE6-upE0QbV--124" target="_f4fuNwBUE6-upE0QbV--124" edge="1">
          <mxGeometry width="100" height="100" relative="1" as="geometry">
            <Array as="points">
              <mxPoint x="1207" y="3789" />
              <mxPoint x="1207" y="3844" />
              <mxPoint x="1070" y="3844" />
              <mxPoint x="1070" y="3789" />
            </Array>
            <mxPoint x="1167.5" y="3789" as="sourcePoint" />
            <mxPoint x="1107.5" y="3789" as="targetPoint" />
          </mxGeometry>
        </mxCell>
        <mxCell id="P5vw7CUGjnSHWgnjB4UO-14" value="" style="html=1;jettySize=18;whiteSpace=wrap;fontSize=13;strokeOpacity=100;strokeWidth=3.8;rounded=1;arcSize=60;edgeStyle=orthogonalEdgeStyle;startArrow=none;endArrow=none;exitX=1.021;exitY=0.5;exitPerimeter=0;lucidId=~.tM86gG2Mg4;" parent="1" source="P5vw7CUGjnSHWgnjB4UO-18" target="P5vw7CUGjnSHWgnjB4UO-20" edge="1">
          <mxGeometry width="100" height="100" relative="1" as="geometry">
            <Array as="points">
              <mxPoint x="1861" y="2962" />
              <mxPoint x="1861" y="3025" />
            </Array>
          </mxGeometry>
        </mxCell>
        <mxCell id="P5vw7CUGjnSHWgnjB4UO-18" value="Open Object" style="html=1;overflow=block;blockSpacing=1;whiteSpace=wrap;fontSize=20;fontColor=default;spacing=3.8;strokeOpacity=100;fillOpacity=100;fillColor=#c7e8ac;strokeWidth=3.8;lucidId=~.tM_RMryY_O;rounded=1;" parent="1" vertex="1">
          <mxGeometry x="1652" y="2930" width="154" height="60" as="geometry" />
        </mxCell>
        <mxCell id="P5vw7CUGjnSHWgnjB4UO-22" value="" style="html=1;overflow=block;blockSpacing=1;whiteSpace=wrap;shape=image;fontSize=13;spacing=0;strokeColor=none;strokeOpacity=100;strokeWidth=0;image=https://images.lucidchart.com/images/c690ffe0-e577-46db-a130-399a404985b0/content;imageAspect=0;lucidId=~.tMJDgf0FO~;" parent="1" vertex="1">
          <mxGeometry x="1319" y="3002.5" width="45" height="45" as="geometry" />
        </mxCell>
        <mxCell id="P5vw7CUGjnSHWgnjB4UO-24" value="Object" style="html=1;overflow=block;blockSpacing=1;whiteSpace=wrap;fontSize=20;fontFamily=Helvetica;fontColor=default;align=right;spacing=3.8;verticalAlign=top;strokeOpacity=0;fillOpacity=0;fillColor=#ffffff;strokeWidth=3.8;lucidId=teuMFIX.KSBV;fontStyle=1" parent="1" vertex="1">
          <mxGeometry x="1352" y="2995" width="78" height="26" as="geometry" />
        </mxCell>
        <mxCell id="P5vw7CUGjnSHWgnjB4UO-27" value="}" style="html=1;overflow=block;blockSpacing=1;whiteSpace=wrap;ellipse;fontSize=20;fontColor=default;spacing=3.8;strokeOpacity=100;fillOpacity=100;fillColor=#ffeca9;strokeWidth=3.8;lucidId=FbuMMgUrrMQn;" parent="1" vertex="1">
          <mxGeometry x="2009" y="2995" width="60" height="60" as="geometry" />
        </mxCell>
        <mxCell id="P5vw7CUGjnSHWgnjB4UO-28" value="" style="html=1;jettySize=18;whiteSpace=wrap;fontSize=13;strokeOpacity=100;strokeWidth=3.8;rounded=1;arcSize=60;edgeStyle=orthogonalEdgeStyle;startArrow=none;endArrow=none;lucidId=~.tMXez0awr2;entryX=0;entryY=0.5;entryDx=0;entryDy=0;exitX=1;exitY=0.5;exitDx=0;exitDy=0;" parent="1" source="P5vw7CUGjnSHWgnjB4UO-22" target="P5vw7CUGjnSHWgnjB4UO-29" edge="1">
          <mxGeometry relative="1" as="geometry">
            <mxPoint x="1364" y="3025" as="sourcePoint" />
            <mxPoint x="1711" y="3025" as="targetPoint" />
            <Array as="points" />
          </mxGeometry>
        </mxCell>
        <mxCell id="P5vw7CUGjnSHWgnjB4UO-29" value="{" style="html=1;overflow=block;blockSpacing=1;whiteSpace=wrap;ellipse;fontSize=20;fontColor=default;spacing=3.8;strokeOpacity=100;fillOpacity=100;fillColor=#ffeca9;strokeWidth=3.8;lucidId=pbuMk-r_Q8J8;" parent="1" vertex="1">
          <mxGeometry x="1447" y="2995" width="60" height="60" as="geometry" />
        </mxCell>
        <mxCell id="P5vw7CUGjnSHWgnjB4UO-33" value="" style="edgeStyle=orthogonalEdgeStyle;rounded=0;orthogonalLoop=1;jettySize=auto;html=1;strokeWidth=4;" parent="1" source="P5vw7CUGjnSHWgnjB4UO-29" target="P5vw7CUGjnSHWgnjB4UO-20" edge="1">
          <mxGeometry relative="1" as="geometry">
            <mxPoint x="1507" y="3025" as="sourcePoint" />
            <mxPoint x="2009" y="3025" as="targetPoint" />
          </mxGeometry>
        </mxCell>
        <mxCell id="P5vw7CUGjnSHWgnjB4UO-20" value="" style="html=1;overflow=block;blockSpacing=1;whiteSpace=wrap;shape=image;fontSize=13;spacing=0;strokeColor=none;strokeOpacity=100;strokeWidth=0;image=https://images.lucidchart.com/images/c690ffe0-e577-46db-a130-399a404985b0/content;imageAspect=0;lucidId=~.tM5M.NH-5m;" parent="1" vertex="1">
          <mxGeometry x="1966" y="3003" width="45" height="45" as="geometry" />
        </mxCell>
        <mxCell id="P5vw7CUGjnSHWgnjB4UO-34" value="" style="html=1;jettySize=18;whiteSpace=wrap;fontSize=13;strokeOpacity=100;strokeWidth=3.8;rounded=1;arcSize=60;edgeStyle=orthogonalEdgeStyle;startArrow=none;endArrow=none;exitX=0;exitY=0.5;lucidId=~.tM86gG2Mg4;exitDx=0;exitDy=0;entryX=1;entryY=0.5;entryDx=0;entryDy=0;" parent="1" source="P5vw7CUGjnSHWgnjB4UO-18" target="P5vw7CUGjnSHWgnjB4UO-29" edge="1">
          <mxGeometry width="100" height="100" relative="1" as="geometry">
            <Array as="points">
              <mxPoint x="1594" y="2962" />
              <mxPoint x="1594" y="3025" />
            </Array>
            <mxPoint x="1592" y="2940" as="sourcePoint" />
            <mxPoint x="1744" y="3003" as="targetPoint" />
          </mxGeometry>
        </mxCell>
        <mxCell id="UearFfjyuwTbAO5nafOu-7" value="" style="html=1;jettySize=18;whiteSpace=wrap;fontSize=13;strokeOpacity=100;strokeWidth=3;rounded=1;arcSize=60;edgeStyle=orthogonalEdgeStyle;startArrow=none;endArrow=none;exitX=1.021;exitY=0.5;exitPerimeter=0;entryX=1;entryY=0.5;lucidId=~.tM7FWVhYBI;entryDx=0;entryDy=0;" edge="1" parent="1" source="UearFfjyuwTbAO5nafOu-12" target="UearFfjyuwTbAO5nafOu-26">
          <mxGeometry width="100" height="100" relative="1" as="geometry">
            <Array as="points">
              <mxPoint x="2780" y="2069" />
              <mxPoint x="2780" y="2162" />
            </Array>
            <mxPoint x="2714.8599999999997" y="2194" as="targetPoint" />
          </mxGeometry>
        </mxCell>
        <mxCell id="UearFfjyuwTbAO5nafOu-8" value="" style="html=1;jettySize=18;whiteSpace=wrap;fontSize=13;strokeOpacity=100;strokeWidth=3;rounded=1;arcSize=60;edgeStyle=orthogonalEdgeStyle;startArrow=none;endArrow=none;exitX=1.021;exitY=0.5;exitPerimeter=0;lucidId=~.tM86gG2Mg4;" edge="1" parent="1" source="UearFfjyuwTbAO5nafOu-12" target="UearFfjyuwTbAO5nafOu-14">
          <mxGeometry width="100" height="100" relative="1" as="geometry">
            <Array as="points">
              <mxPoint x="2733" y="2068" />
            </Array>
          </mxGeometry>
        </mxCell>
        <mxCell id="UearFfjyuwTbAO5nafOu-12" value="Header" style="html=1;overflow=block;blockSpacing=1;whiteSpace=wrap;fontSize=16;fontColor=default;spacing=3.8;strokeOpacity=100;fillOpacity=100;fillColor=#c7e8ac;strokeWidth=3;lucidId=~.tM_RMryY_O;rounded=1;fontFamily=Lucida Console;" vertex="1" parent="1">
          <mxGeometry x="2622" y="2039" width="121" height="60" as="geometry" />
        </mxCell>
        <mxCell id="UearFfjyuwTbAO5nafOu-13" value="" style="html=1;jettySize=18;whiteSpace=wrap;fontSize=13;strokeOpacity=100;strokeWidth=3;rounded=1;arcSize=60;edgeStyle=orthogonalEdgeStyle;startArrow=none;endArrow=none;exitX=0.813;exitY=0.5;exitPerimeter=0;entryX=-0.021;entryY=0.5;entryPerimeter=0;lucidId=~.tMxG1s-68b;" edge="1" parent="1" source="UearFfjyuwTbAO5nafOu-16" target="UearFfjyuwTbAO5nafOu-12">
          <mxGeometry width="100" height="100" relative="1" as="geometry">
            <Array as="points">
              <mxPoint x="2535" y="2069" />
            </Array>
          </mxGeometry>
        </mxCell>
        <mxCell id="UearFfjyuwTbAO5nafOu-14" value="" style="html=1;overflow=block;blockSpacing=1;whiteSpace=wrap;shape=image;fontSize=13;spacing=0;strokeColor=none;strokeOpacity=100;strokeWidth=3;image=https://images.lucidchart.com/images/c690ffe0-e577-46db-a130-399a404985b0/content;imageAspect=0;lucidId=~.tM5M.NH-5m;" vertex="1" parent="1">
          <mxGeometry x="2909" y="2045.5" width="45" height="45" as="geometry" />
        </mxCell>
        <mxCell id="UearFfjyuwTbAO5nafOu-15" style="html=1;jettySize=18;whiteSpace=wrap;fontSize=13;strokeOpacity=100;strokeWidth=3;rounded=1;arcSize=60;edgeStyle=orthogonalEdgeStyle;startArrow=none;endArrow=none;lucidId=~.tMXez0awr2;entryX=0;entryY=0.5;entryDx=0;entryDy=0;" edge="1" parent="1" source="UearFfjyuwTbAO5nafOu-16">
          <mxGeometry relative="1" as="geometry">
            <Array as="points">
              <mxPoint x="2578" y="2069" />
              <mxPoint x="2578" y="2269" />
            </Array>
            <mxPoint x="2455.02" y="2069.1800000000003" as="sourcePoint" />
            <mxPoint x="2623" y="2269" as="targetPoint" />
          </mxGeometry>
        </mxCell>
        <mxCell id="UearFfjyuwTbAO5nafOu-16" value="" style="html=1;overflow=block;blockSpacing=1;whiteSpace=wrap;shape=image;fontSize=13;spacing=0;strokeColor=none;strokeOpacity=100;strokeWidth=3;image=https://images.lucidchart.com/images/c690ffe0-e577-46db-a130-399a404985b0/content;imageAspect=0;lucidId=~.tMJDgf0FO~;" vertex="1" parent="1">
          <mxGeometry x="2412" y="2046.5" width="45" height="45" as="geometry" />
        </mxCell>
        <mxCell id="UearFfjyuwTbAO5nafOu-18" value="IO Document" style="html=1;overflow=block;blockSpacing=1;whiteSpace=wrap;fontSize=16;fontFamily=Lucida Console;fontColor=default;align=left;spacing=3.8;verticalAlign=top;strokeOpacity=0;fillOpacity=0;fillColor=#ffffff;strokeWidth=3;lucidId=teuMFIX.KSBV;fontStyle=1" vertex="1" parent="1">
          <mxGeometry x="2469" y="2043" width="123" height="26" as="geometry" />
        </mxCell>
        <mxCell id="UearFfjyuwTbAO5nafOu-20" value="" style="html=1;jettySize=18;whiteSpace=wrap;fontSize=13;strokeOpacity=100;strokeWidth=3;rounded=1;arcSize=60;edgeStyle=orthogonalEdgeStyle;startArrow=none;endArrow=none;lucidId=~.tM7FWVhYBI;exitX=1;exitY=0.5;exitDx=0;exitDy=0;" edge="1" parent="1" source="UearFfjyuwTbAO5nafOu-23">
          <mxGeometry width="100" height="100" relative="1" as="geometry">
            <Array as="points">
              <mxPoint x="2784" y="2269" />
              <mxPoint x="2784" y="2164" />
            </Array>
            <mxPoint x="2992.89" y="2049" as="sourcePoint" />
            <mxPoint x="2738" y="2164" as="targetPoint" />
          </mxGeometry>
        </mxCell>
        <mxCell id="UearFfjyuwTbAO5nafOu-23" value="Section" style="html=1;overflow=block;blockSpacing=1;whiteSpace=wrap;fontSize=16;fontColor=default;spacing=3.8;strokeOpacity=100;fillOpacity=100;fillColor=#c7e8ac;strokeWidth=3;lucidId=~.tM_RMryY_O;rounded=1;fontFamily=Lucida Console;" vertex="1" parent="1">
          <mxGeometry x="2623" y="2239" width="118" height="60" as="geometry" />
        </mxCell>
        <mxCell id="UearFfjyuwTbAO5nafOu-24" style="html=1;jettySize=18;whiteSpace=wrap;fontSize=13;strokeOpacity=100;strokeWidth=3;rounded=1;arcSize=60;edgeStyle=orthogonalEdgeStyle;startArrow=none;endArrow=none;lucidId=~.tMXez0awr2;entryX=1;entryY=0.5;entryDx=0;entryDy=0;exitX=0;exitY=0.522;exitDx=0;exitDy=0;exitPerimeter=0;" edge="1" parent="1" source="UearFfjyuwTbAO5nafOu-14" target="UearFfjyuwTbAO5nafOu-23">
          <mxGeometry relative="1" as="geometry">
            <Array as="points">
              <mxPoint x="2821" y="2069" />
              <mxPoint x="2821" y="2269" />
            </Array>
            <mxPoint x="2857" y="1957" as="sourcePoint" />
            <mxPoint x="2746" y="2301" as="targetPoint" />
          </mxGeometry>
        </mxCell>
        <mxCell id="UearFfjyuwTbAO5nafOu-25" value="" style="html=1;jettySize=18;whiteSpace=wrap;fontSize=13;strokeOpacity=100;strokeWidth=3;rounded=1;arcSize=60;edgeStyle=orthogonalEdgeStyle;startArrow=none;endArrow=none;exitX=1.003;exitY=0.538;lucidId=~.tM7FWVhYBI;exitDx=0;exitDy=0;exitPerimeter=0;entryX=-0.009;entryY=0.508;entryDx=0;entryDy=0;entryPerimeter=0;" edge="1" parent="1" source="UearFfjyuwTbAO5nafOu-26" target="UearFfjyuwTbAO5nafOu-26">
          <mxGeometry width="100" height="100" relative="1" as="geometry">
            <Array as="points">
              <mxPoint x="2783" y="2164" />
              <mxPoint x="2783" y="2216" />
              <mxPoint x="2578" y="2216" />
              <mxPoint x="2578" y="2163" />
            </Array>
            <mxPoint x="2713" y="2164" as="sourcePoint" />
            <mxPoint x="2613" y="2162" as="targetPoint" />
          </mxGeometry>
        </mxCell>
        <mxCell id="UearFfjyuwTbAO5nafOu-26" value="Section Separator" style="html=1;overflow=block;blockSpacing=1;whiteSpace=wrap;fontSize=16;fontColor=default;spacing=3.8;strokeOpacity=100;fillOpacity=100;fillColor=#c7e8ac;strokeWidth=3;lucidId=~.tM_RMryY_O;rounded=1;fontFamily=Lucida Console;" vertex="1" parent="1">
          <mxGeometry x="2622" y="2132" width="120" height="60" as="geometry" />
        </mxCell>
        <mxCell id="UearFfjyuwTbAO5nafOu-30" value="" style="html=1;jettySize=18;whiteSpace=wrap;fontSize=13;strokeOpacity=100;strokeWidth=3;rounded=1;arcSize=60;edgeStyle=orthogonalEdgeStyle;startArrow=none;endArrow=none;exitX=1.021;exitY=0.5;exitPerimeter=0;entryX=1;entryY=0.5;lucidId=~.tM7FWVhYBI;entryDx=0;entryDy=0;" edge="1" source="UearFfjyuwTbAO5nafOu-32" target="UearFfjyuwTbAO5nafOu-42" parent="1">
          <mxGeometry width="100" height="100" relative="1" as="geometry">
            <Array as="points">
              <mxPoint x="3889" y="2041" />
              <mxPoint x="3889" y="2165" />
              <mxPoint x="3851" y="2165" />
            </Array>
            <mxPoint x="3823.8599999999997" y="2166" as="targetPoint" />
          </mxGeometry>
        </mxCell>
        <mxCell id="UearFfjyuwTbAO5nafOu-31" value="" style="html=1;jettySize=18;whiteSpace=wrap;fontSize=13;strokeOpacity=100;strokeWidth=3;rounded=1;arcSize=60;edgeStyle=orthogonalEdgeStyle;startArrow=none;endArrow=none;exitX=1.021;exitY=0.5;exitPerimeter=0;lucidId=~.tM86gG2Mg4;" edge="1" source="UearFfjyuwTbAO5nafOu-32" target="UearFfjyuwTbAO5nafOu-34" parent="1">
          <mxGeometry width="100" height="100" relative="1" as="geometry">
            <Array as="points">
              <mxPoint x="3842" y="2040" />
            </Array>
          </mxGeometry>
        </mxCell>
        <mxCell id="UearFfjyuwTbAO5nafOu-32" value="Header" style="html=1;overflow=block;blockSpacing=1;whiteSpace=wrap;fontSize=16;fontColor=default;spacing=3.8;strokeOpacity=100;fillOpacity=100;fillColor=#c7e8ac;strokeWidth=3;lucidId=~.tM_RMryY_O;rounded=1;fontFamily=Lucida Console;" vertex="1" parent="1">
          <mxGeometry x="3731" y="2011" width="121" height="60" as="geometry" />
        </mxCell>
        <mxCell id="UearFfjyuwTbAO5nafOu-33" value="" style="html=1;jettySize=18;whiteSpace=wrap;fontSize=13;strokeOpacity=100;strokeWidth=3;rounded=1;arcSize=60;edgeStyle=orthogonalEdgeStyle;startArrow=none;endArrow=none;exitX=0.813;exitY=0.5;exitPerimeter=0;entryX=-0.021;entryY=0.5;entryPerimeter=0;lucidId=~.tMxG1s-68b;" edge="1" source="UearFfjyuwTbAO5nafOu-36" target="UearFfjyuwTbAO5nafOu-32" parent="1">
          <mxGeometry width="100" height="100" relative="1" as="geometry">
            <Array as="points">
              <mxPoint x="3644" y="2041" />
            </Array>
          </mxGeometry>
        </mxCell>
        <mxCell id="UearFfjyuwTbAO5nafOu-34" value="" style="html=1;overflow=block;blockSpacing=1;whiteSpace=wrap;shape=image;fontSize=13;spacing=0;strokeColor=none;strokeOpacity=100;strokeWidth=3;image=https://images.lucidchart.com/images/c690ffe0-e577-46db-a130-399a404985b0/content;imageAspect=0;lucidId=~.tM5M.NH-5m;" vertex="1" parent="1">
          <mxGeometry x="4018" y="2017.5" width="45" height="45" as="geometry" />
        </mxCell>
        <mxCell id="UearFfjyuwTbAO5nafOu-35" style="html=1;jettySize=18;whiteSpace=wrap;fontSize=13;strokeOpacity=100;strokeWidth=3;rounded=1;arcSize=60;edgeStyle=orthogonalEdgeStyle;startArrow=none;endArrow=none;lucidId=~.tMXez0awr2;entryX=1;entryY=0.5;entryDx=0;entryDy=0;" edge="1" source="UearFfjyuwTbAO5nafOu-36" parent="1" target="UearFfjyuwTbAO5nafOu-42">
          <mxGeometry relative="1" as="geometry">
            <Array as="points">
              <mxPoint x="3687" y="2041" />
              <mxPoint x="3687" y="2104" />
              <mxPoint x="3887" y="2104" />
              <mxPoint x="3887" y="2165" />
              <mxPoint x="3851" y="2165" />
            </Array>
            <mxPoint x="3564.02" y="2041.1800000000003" as="sourcePoint" />
            <mxPoint x="3732" y="2241" as="targetPoint" />
          </mxGeometry>
        </mxCell>
        <mxCell id="UearFfjyuwTbAO5nafOu-36" value="" style="html=1;overflow=block;blockSpacing=1;whiteSpace=wrap;shape=image;fontSize=13;spacing=0;strokeColor=none;strokeOpacity=100;strokeWidth=3;image=https://images.lucidchart.com/images/c690ffe0-e577-46db-a130-399a404985b0/content;imageAspect=0;lucidId=~.tMJDgf0FO~;" vertex="1" parent="1">
          <mxGeometry x="3521" y="2018.5" width="45" height="45" as="geometry" />
        </mxCell>
        <mxCell id="UearFfjyuwTbAO5nafOu-37" value="IO Document" style="html=1;overflow=block;blockSpacing=1;whiteSpace=wrap;fontSize=16;fontFamily=Lucida Console;fontColor=default;align=left;spacing=3.8;verticalAlign=top;strokeOpacity=0;fillOpacity=0;fillColor=#ffffff;strokeWidth=3;lucidId=teuMFIX.KSBV;fontStyle=1" vertex="1" parent="1">
          <mxGeometry x="3578" y="2015" width="123" height="26" as="geometry" />
        </mxCell>
        <mxCell id="UearFfjyuwTbAO5nafOu-40" style="html=1;jettySize=18;whiteSpace=wrap;fontSize=13;strokeOpacity=100;strokeWidth=3;rounded=1;arcSize=60;edgeStyle=orthogonalEdgeStyle;startArrow=none;endArrow=none;lucidId=~.tMXez0awr2;entryX=0;entryY=0.5;entryDx=0;entryDy=0;exitX=0;exitY=0.522;exitDx=0;exitDy=0;exitPerimeter=0;" edge="1" source="UearFfjyuwTbAO5nafOu-34" target="UearFfjyuwTbAO5nafOu-42" parent="1">
          <mxGeometry relative="1" as="geometry">
            <Array as="points">
              <mxPoint x="3949" y="2041" />
              <mxPoint x="3949" y="2227" />
              <mxPoint x="3689" y="2227" />
              <mxPoint x="3689" y="2164" />
            </Array>
            <mxPoint x="3966" y="1929" as="sourcePoint" />
            <mxPoint x="3850" y="2241" as="targetPoint" />
          </mxGeometry>
        </mxCell>
        <mxCell id="UearFfjyuwTbAO5nafOu-41" value="" style="html=1;jettySize=18;whiteSpace=wrap;fontSize=13;strokeOpacity=100;strokeWidth=3;rounded=1;arcSize=60;edgeStyle=orthogonalEdgeStyle;startArrow=none;endArrow=none;exitX=1.005;exitY=0.512;lucidId=~.tM7FWVhYBI;exitDx=0;exitDy=0;exitPerimeter=0;entryX=0;entryY=0.5;entryDx=0;entryDy=0;" edge="1" source="UearFfjyuwTbAO5nafOu-42" target="UearFfjyuwTbAO5nafOu-42" parent="1">
          <mxGeometry width="100" height="100" relative="1" as="geometry">
            <Array as="points">
              <mxPoint x="3889" y="2165" />
              <mxPoint x="3889" y="2228" />
              <mxPoint x="3689" y="2228" />
              <mxPoint x="3689" y="2164" />
            </Array>
            <mxPoint x="3822" y="2156" as="sourcePoint" />
            <mxPoint x="3719" y="2180" as="targetPoint" />
          </mxGeometry>
        </mxCell>
        <mxCell id="UearFfjyuwTbAO5nafOu-42" value="Data Section" style="html=1;overflow=block;blockSpacing=1;whiteSpace=wrap;fontSize=16;fontColor=default;spacing=3.8;strokeOpacity=100;fillOpacity=100;fillColor=#c7e8ac;strokeWidth=3;lucidId=~.tM_RMryY_O;rounded=1;fontFamily=Lucida Console;" vertex="1" parent="1">
          <mxGeometry x="3731" y="2134" width="120" height="60" as="geometry" />
        </mxCell>
        <mxCell id="UearFfjyuwTbAO5nafOu-43" style="html=1;jettySize=18;whiteSpace=wrap;fontSize=13;strokeOpacity=100;strokeWidth=3;rounded=1;arcSize=60;edgeStyle=orthogonalEdgeStyle;startArrow=none;endArrow=none;lucidId=~.tMXez0awr2;exitX=1;exitY=0.5;exitDx=0;exitDy=0;" edge="1" parent="1" source="UearFfjyuwTbAO5nafOu-36" target="UearFfjyuwTbAO5nafOu-34">
          <mxGeometry relative="1" as="geometry">
            <Array as="points">
              <mxPoint x="3640" y="2041" />
              <mxPoint x="3640" y="2262" />
              <mxPoint x="3950" y="2262" />
              <mxPoint x="3950" y="2040" />
            </Array>
            <mxPoint x="3576" y="2051" as="sourcePoint" />
            <mxPoint x="3861" y="2174" as="targetPoint" />
          </mxGeometry>
        </mxCell>
        <mxCell id="UearFfjyuwTbAO5nafOu-44" value="" style="html=1;jettySize=18;whiteSpace=wrap;fontSize=13;strokeOpacity=100;strokeWidth=3;rounded=1;arcSize=60;edgeStyle=orthogonalEdgeStyle;startArrow=none;endArrow=none;exitX=1.021;exitY=0.5;exitPerimeter=0;entryX=1;entryY=0.5;lucidId=~.tM7FWVhYBI;entryDx=0;entryDy=0;" edge="1" source="UearFfjyuwTbAO5nafOu-46" target="UearFfjyuwTbAO5nafOu-54" parent="1">
          <mxGeometry width="100" height="100" relative="1" as="geometry">
            <Array as="points">
              <mxPoint x="3888" y="2458" />
              <mxPoint x="3888" y="2582" />
              <mxPoint x="3850" y="2582" />
            </Array>
            <mxPoint x="3822.8599999999997" y="2583" as="targetPoint" />
          </mxGeometry>
        </mxCell>
        <mxCell id="UearFfjyuwTbAO5nafOu-45" value="" style="html=1;jettySize=18;whiteSpace=wrap;fontSize=13;strokeOpacity=100;strokeWidth=3;rounded=1;arcSize=60;edgeStyle=orthogonalEdgeStyle;startArrow=none;endArrow=none;exitX=1.021;exitY=0.5;exitPerimeter=0;lucidId=~.tM86gG2Mg4;" edge="1" source="UearFfjyuwTbAO5nafOu-46" target="UearFfjyuwTbAO5nafOu-48" parent="1">
          <mxGeometry width="100" height="100" relative="1" as="geometry">
            <Array as="points">
              <mxPoint x="3841" y="2457" />
            </Array>
          </mxGeometry>
        </mxCell>
        <mxCell id="UearFfjyuwTbAO5nafOu-46" value="Section Separator" style="html=1;overflow=block;blockSpacing=1;whiteSpace=wrap;fontSize=16;spacing=3.8;strokeOpacity=100;fillOpacity=100;fillColor=#c7e8ac;strokeWidth=3;lucidId=~.tM_RMryY_O;rounded=1;fontFamily=Lucida Console;strokeColor=default;align=center;verticalAlign=middle;fontColor=default;" vertex="1" parent="1">
          <mxGeometry x="3730" y="2428" width="121" height="60" as="geometry" />
        </mxCell>
        <mxCell id="UearFfjyuwTbAO5nafOu-47" value="" style="html=1;jettySize=18;whiteSpace=wrap;fontSize=13;strokeOpacity=100;strokeWidth=3;rounded=1;arcSize=60;edgeStyle=orthogonalEdgeStyle;startArrow=none;endArrow=none;exitX=0.813;exitY=0.5;exitPerimeter=0;entryX=-0.021;entryY=0.5;entryPerimeter=0;lucidId=~.tMxG1s-68b;" edge="1" source="UearFfjyuwTbAO5nafOu-50" target="UearFfjyuwTbAO5nafOu-46" parent="1">
          <mxGeometry width="100" height="100" relative="1" as="geometry">
            <Array as="points">
              <mxPoint x="3643" y="2458" />
            </Array>
          </mxGeometry>
        </mxCell>
        <mxCell id="UearFfjyuwTbAO5nafOu-48" value="" style="html=1;overflow=block;blockSpacing=1;whiteSpace=wrap;shape=image;fontSize=13;spacing=0;strokeColor=none;strokeOpacity=100;strokeWidth=3;image=https://images.lucidchart.com/images/c690ffe0-e577-46db-a130-399a404985b0/content;imageAspect=0;lucidId=~.tM5M.NH-5m;" vertex="1" parent="1">
          <mxGeometry x="4017" y="2434.5" width="45" height="45" as="geometry" />
        </mxCell>
        <mxCell id="UearFfjyuwTbAO5nafOu-49" style="html=1;jettySize=18;whiteSpace=wrap;fontSize=13;strokeOpacity=100;strokeWidth=3;rounded=1;arcSize=60;edgeStyle=orthogonalEdgeStyle;startArrow=none;endArrow=none;lucidId=~.tMXez0awr2;entryX=1;entryY=0.5;entryDx=0;entryDy=0;" edge="1" source="UearFfjyuwTbAO5nafOu-50" target="UearFfjyuwTbAO5nafOu-54" parent="1">
          <mxGeometry relative="1" as="geometry">
            <Array as="points">
              <mxPoint x="3686" y="2458" />
              <mxPoint x="3686" y="2521" />
              <mxPoint x="3886" y="2521" />
              <mxPoint x="3886" y="2582" />
              <mxPoint x="3850" y="2582" />
            </Array>
            <mxPoint x="3563.02" y="2458.1800000000003" as="sourcePoint" />
            <mxPoint x="3731" y="2658" as="targetPoint" />
          </mxGeometry>
        </mxCell>
        <mxCell id="UearFfjyuwTbAO5nafOu-50" value="" style="html=1;overflow=block;blockSpacing=1;whiteSpace=wrap;shape=image;fontSize=13;spacing=0;strokeColor=none;strokeOpacity=100;strokeWidth=3;image=https://images.lucidchart.com/images/c690ffe0-e577-46db-a130-399a404985b0/content;imageAspect=0;lucidId=~.tMJDgf0FO~;" vertex="1" parent="1">
          <mxGeometry x="3520" y="2435.5" width="45" height="45" as="geometry" />
        </mxCell>
        <mxCell id="UearFfjyuwTbAO5nafOu-51" value="Section" style="html=1;overflow=block;blockSpacing=1;whiteSpace=wrap;fontSize=16;fontFamily=Lucida Console;fontColor=default;align=left;spacing=3.8;verticalAlign=top;strokeOpacity=0;fillOpacity=0;fillColor=#ffffff;strokeWidth=3;lucidId=teuMFIX.KSBV;fontStyle=1" vertex="1" parent="1">
          <mxGeometry x="3577" y="2432" width="123" height="26" as="geometry" />
        </mxCell>
        <mxCell id="UearFfjyuwTbAO5nafOu-52" style="html=1;jettySize=18;whiteSpace=wrap;fontSize=13;strokeOpacity=100;strokeWidth=3;rounded=1;arcSize=60;edgeStyle=orthogonalEdgeStyle;startArrow=none;endArrow=none;lucidId=~.tMXez0awr2;entryX=0;entryY=0.5;entryDx=0;entryDy=0;exitX=0;exitY=0.522;exitDx=0;exitDy=0;exitPerimeter=0;" edge="1" source="UearFfjyuwTbAO5nafOu-48" target="UearFfjyuwTbAO5nafOu-54" parent="1">
          <mxGeometry relative="1" as="geometry">
            <Array as="points">
              <mxPoint x="3948" y="2458" />
              <mxPoint x="3948" y="2644" />
              <mxPoint x="3688" y="2644" />
              <mxPoint x="3688" y="2581" />
            </Array>
            <mxPoint x="3965" y="2346" as="sourcePoint" />
            <mxPoint x="3849" y="2658" as="targetPoint" />
          </mxGeometry>
        </mxCell>
        <mxCell id="UearFfjyuwTbAO5nafOu-53" value="" style="html=1;jettySize=18;whiteSpace=wrap;fontSize=13;strokeOpacity=100;strokeWidth=3;rounded=1;arcSize=60;edgeStyle=orthogonalEdgeStyle;startArrow=none;endArrow=none;exitX=1.005;exitY=0.512;lucidId=~.tM7FWVhYBI;exitDx=0;exitDy=0;exitPerimeter=0;entryX=0;entryY=0.5;entryDx=0;entryDy=0;" edge="1" source="UearFfjyuwTbAO5nafOu-54" target="UearFfjyuwTbAO5nafOu-54" parent="1">
          <mxGeometry width="100" height="100" relative="1" as="geometry">
            <Array as="points">
              <mxPoint x="3888" y="2582" />
              <mxPoint x="3888" y="2645" />
              <mxPoint x="3688" y="2645" />
              <mxPoint x="3688" y="2581" />
            </Array>
            <mxPoint x="3821" y="2573" as="sourcePoint" />
            <mxPoint x="3718" y="2597" as="targetPoint" />
          </mxGeometry>
        </mxCell>
        <mxCell id="UearFfjyuwTbAO5nafOu-54" value="Section Data" style="html=1;overflow=block;blockSpacing=1;whiteSpace=wrap;fontSize=16;fontColor=default;spacing=3.8;strokeOpacity=100;fillOpacity=100;fillColor=#c7e8ac;strokeWidth=3;lucidId=~.tM_RMryY_O;rounded=1;fontFamily=Lucida Console;" vertex="1" parent="1">
          <mxGeometry x="3730" y="2551" width="120" height="60" as="geometry" />
        </mxCell>
        <mxCell id="UearFfjyuwTbAO5nafOu-55" style="html=1;jettySize=18;whiteSpace=wrap;fontSize=13;strokeOpacity=100;strokeWidth=3;rounded=1;arcSize=60;edgeStyle=orthogonalEdgeStyle;startArrow=none;endArrow=none;lucidId=~.tMXez0awr2;exitX=1;exitY=0.5;exitDx=0;exitDy=0;" edge="1" source="UearFfjyuwTbAO5nafOu-50" target="UearFfjyuwTbAO5nafOu-48" parent="1">
          <mxGeometry relative="1" as="geometry">
            <Array as="points">
              <mxPoint x="3639" y="2458" />
              <mxPoint x="3639" y="2679" />
              <mxPoint x="3949" y="2679" />
              <mxPoint x="3949" y="2457" />
            </Array>
            <mxPoint x="3575" y="2468" as="sourcePoint" />
            <mxPoint x="3860" y="2591" as="targetPoint" />
          </mxGeometry>
        </mxCell>
        <mxCell id="UearFfjyuwTbAO5nafOu-57" value="" style="html=1;jettySize=18;whiteSpace=wrap;fontSize=13;strokeOpacity=100;strokeWidth=3;rounded=1;arcSize=60;edgeStyle=orthogonalEdgeStyle;startArrow=none;endArrow=none;exitX=1;exitY=0.5;lucidId=~.tM7FWVhYBI;exitDx=0;exitDy=0;" edge="1" source="UearFfjyuwTbAO5nafOu-82" target="UearFfjyuwTbAO5nafOu-61" parent="1">
          <mxGeometry width="100" height="100" relative="1" as="geometry">
            <Array as="points" />
            <mxPoint x="3915.5409999999993" y="3586" as="sourcePoint" />
            <mxPoint x="3884.8599999999997" y="3711" as="targetPoint" />
          </mxGeometry>
        </mxCell>
        <mxCell id="UearFfjyuwTbAO5nafOu-58" value="" style="html=1;jettySize=18;whiteSpace=wrap;fontSize=13;strokeOpacity=100;strokeWidth=3;rounded=1;arcSize=60;edgeStyle=orthogonalEdgeStyle;startArrow=none;endArrow=none;lucidId=~.tM86gG2Mg4;exitX=1;exitY=0.5;exitDx=0;exitDy=0;" edge="1" source="UearFfjyuwTbAO5nafOu-71" target="UearFfjyuwTbAO5nafOu-78" parent="1">
          <mxGeometry width="100" height="100" relative="1" as="geometry">
            <Array as="points" />
            <mxPoint x="3753" y="3365" as="sourcePoint" />
            <mxPoint x="4129" y="3354" as="targetPoint" />
          </mxGeometry>
        </mxCell>
        <mxCell id="UearFfjyuwTbAO5nafOu-60" value="" style="html=1;jettySize=18;whiteSpace=wrap;fontSize=13;strokeOpacity=100;strokeWidth=3;rounded=1;arcSize=60;edgeStyle=orthogonalEdgeStyle;startArrow=none;endArrow=none;entryX=0;entryY=0.5;lucidId=~.tMxG1s-68b;entryDx=0;entryDy=0;" edge="1" source="UearFfjyuwTbAO5nafOu-73" target="UearFfjyuwTbAO5nafOu-69" parent="1">
          <mxGeometry width="100" height="100" relative="1" as="geometry">
            <Array as="points">
              <mxPoint x="3324" y="3350" />
              <mxPoint x="3324" y="3350" />
            </Array>
            <mxPoint x="3289.564999999999" y="3353.44" as="sourcePoint" />
            <mxPoint x="3460.439" y="3353.44" as="targetPoint" />
          </mxGeometry>
        </mxCell>
        <mxCell id="UearFfjyuwTbAO5nafOu-61" value="" style="html=1;overflow=block;blockSpacing=1;whiteSpace=wrap;shape=image;fontSize=13;spacing=0;strokeColor=none;strokeOpacity=100;strokeWidth=3;image=https://images.lucidchart.com/images/c690ffe0-e577-46db-a130-399a404985b0/content;imageAspect=0;lucidId=~.tM5M.NH-5m;" vertex="1" parent="1">
          <mxGeometry x="4009" y="3563.5" width="45" height="45" as="geometry" />
        </mxCell>
        <mxCell id="UearFfjyuwTbAO5nafOu-62" style="html=1;jettySize=18;whiteSpace=wrap;fontSize=13;strokeOpacity=100;strokeWidth=3;rounded=1;arcSize=60;edgeStyle=orthogonalEdgeStyle;startArrow=none;endArrow=none;lucidId=~.tMXez0awr2;entryX=0;entryY=0.5;entryDx=0;entryDy=0;" edge="1" source="UearFfjyuwTbAO5nafOu-63" target="UearFfjyuwTbAO5nafOu-82" parent="1">
          <mxGeometry relative="1" as="geometry">
            <mxPoint x="3625.02" y="3586.1800000000003" as="sourcePoint" />
            <mxPoint x="3793" y="3786" as="targetPoint" />
          </mxGeometry>
        </mxCell>
        <mxCell id="UearFfjyuwTbAO5nafOu-63" value="" style="html=1;overflow=block;blockSpacing=1;whiteSpace=wrap;shape=image;fontSize=13;spacing=0;strokeColor=none;strokeOpacity=100;strokeWidth=3;image=https://images.lucidchart.com/images/c690ffe0-e577-46db-a130-399a404985b0/content;imageAspect=0;lucidId=~.tMJDgf0FO~;" vertex="1" parent="1">
          <mxGeometry x="3603" y="3563.5" width="45" height="45" as="geometry" />
        </mxCell>
        <mxCell id="UearFfjyuwTbAO5nafOu-64" value="Section Separator" style="html=1;overflow=block;blockSpacing=1;whiteSpace=wrap;fontSize=16;fontFamily=Lucida Console;fontColor=default;align=left;spacing=3.8;verticalAlign=top;strokeOpacity=0;fillOpacity=0;fillColor=#ffffff;strokeWidth=3;lucidId=teuMFIX.KSBV;fontStyle=1" vertex="1" parent="1">
          <mxGeometry x="3279" y="3320" width="176" height="26" as="geometry" />
        </mxCell>
        <mxCell id="UearFfjyuwTbAO5nafOu-65" style="html=1;jettySize=18;whiteSpace=wrap;fontSize=13;strokeOpacity=100;strokeWidth=3;rounded=1;arcSize=60;edgeStyle=orthogonalEdgeStyle;startArrow=none;endArrow=none;lucidId=~.tMXez0awr2;entryX=1;entryY=0.5;entryDx=0;entryDy=0;exitX=0;exitY=0.522;exitDx=0;exitDy=0;exitPerimeter=0;" edge="1" source="UearFfjyuwTbAO5nafOu-61" target="UearFfjyuwTbAO5nafOu-67" parent="1">
          <mxGeometry relative="1" as="geometry">
            <mxPoint x="4027" y="3474" as="sourcePoint" />
            <mxPoint x="3911" y="3786" as="targetPoint" />
          </mxGeometry>
        </mxCell>
        <mxCell id="UearFfjyuwTbAO5nafOu-66" value="" style="html=1;jettySize=18;whiteSpace=wrap;fontSize=13;strokeOpacity=100;strokeWidth=3;rounded=1;arcSize=60;edgeStyle=orthogonalEdgeStyle;startArrow=none;endArrow=none;lucidId=~.tM7FWVhYBI;entryX=0;entryY=0.5;entryDx=0;entryDy=0;exitX=1;exitY=0.5;exitDx=0;exitDy=0;" edge="1" source="UearFfjyuwTbAO5nafOu-63" target="UearFfjyuwTbAO5nafOu-67" parent="1">
          <mxGeometry width="100" height="100" relative="1" as="geometry">
            <mxPoint x="3723" y="3607" as="sourcePoint" />
            <mxPoint x="3780" y="3725" as="targetPoint" />
          </mxGeometry>
        </mxCell>
        <mxCell id="UearFfjyuwTbAO5nafOu-67" value="Collection" style="html=1;overflow=block;blockSpacing=1;whiteSpace=wrap;fontSize=16;fontColor=default;spacing=3.8;strokeOpacity=100;fillOpacity=100;fillColor=#c7e8ac;strokeWidth=3;lucidId=~.tM_RMryY_O;rounded=1;fontFamily=Lucida Console;" vertex="1" parent="1">
          <mxGeometry x="3781" y="3641" width="120" height="60" as="geometry" />
        </mxCell>
        <mxCell id="UearFfjyuwTbAO5nafOu-73" value="" style="html=1;overflow=block;blockSpacing=1;whiteSpace=wrap;shape=image;fontSize=13;spacing=0;strokeColor=none;strokeOpacity=100;strokeWidth=3;image=https://images.lucidchart.com/images/c690ffe0-e577-46db-a130-399a404985b0/content;imageAspect=0;lucidId=~.tMJDgf0FO~;" vertex="1" parent="1">
          <mxGeometry x="3226" y="3327.5" width="45" height="45" as="geometry" />
        </mxCell>
        <mxCell id="UearFfjyuwTbAO5nafOu-74" value="" style="html=1;overflow=block;blockSpacing=1;whiteSpace=wrap;shape=image;fontSize=13;spacing=0;strokeColor=none;strokeOpacity=100;strokeWidth=3;image=https://images.lucidchart.com/images/c690ffe0-e577-46db-a130-399a404985b0/content;imageAspect=0;lucidId=~.tM5M.NH-5m;" vertex="1" parent="1">
          <mxGeometry x="4320" y="3331.5" width="45" height="45" as="geometry" />
        </mxCell>
        <mxCell id="UearFfjyuwTbAO5nafOu-75" value="" style="html=1;jettySize=18;whiteSpace=wrap;fontSize=13;strokeOpacity=100;strokeWidth=3;rounded=1;arcSize=60;edgeStyle=orthogonalEdgeStyle;startArrow=none;endArrow=none;lucidId=~.tMxG1s-68b;" edge="1" parent="1">
          <mxGeometry width="100" height="100" relative="1" as="geometry">
            <Array as="points">
              <mxPoint x="3598" y="3350" />
              <mxPoint x="3598" y="3398" />
              <mxPoint x="4097" y="3398" />
              <mxPoint x="4097" y="3354" />
            </Array>
            <mxPoint x="3559" y="3349.73" as="sourcePoint" />
            <mxPoint x="4129" y="3354" as="targetPoint" />
          </mxGeometry>
        </mxCell>
        <mxCell id="UearFfjyuwTbAO5nafOu-76" value="" style="html=1;jettySize=18;whiteSpace=wrap;fontSize=13;strokeOpacity=100;strokeWidth=3;rounded=1;arcSize=60;edgeStyle=orthogonalEdgeStyle;startArrow=none;endArrow=none;lucidId=~.tM86gG2Mg4;exitX=1;exitY=0.5;exitDx=0;exitDy=0;entryX=0.002;entryY=0.424;entryDx=0;entryDy=0;entryPerimeter=0;" edge="1" parent="1" target="UearFfjyuwTbAO5nafOu-70">
          <mxGeometry width="100" height="100" relative="1" as="geometry">
            <Array as="points">
              <mxPoint x="3611" y="3350" />
            </Array>
            <mxPoint x="3559" y="3349.78" as="sourcePoint" />
            <mxPoint x="3611" y="3350" as="targetPoint" />
          </mxGeometry>
        </mxCell>
        <mxCell id="UearFfjyuwTbAO5nafOu-69" value="---" style="html=1;overflow=block;blockSpacing=1;whiteSpace=wrap;fontSize=16;spacing=3.8;strokeOpacity=100;fillOpacity=100;fillColor=#fff2cc;strokeWidth=3;lucidId=~.tM_RMryY_O;rounded=1;fontFamily=Lucida Console;strokeColor=#d6b656;align=center;verticalAlign=middle;" vertex="1" parent="1">
          <mxGeometry x="3472" y="3320" width="87" height="60" as="geometry" />
        </mxCell>
        <mxCell id="UearFfjyuwTbAO5nafOu-72" value="Section Sechema" style="html=1;overflow=block;blockSpacing=1;whiteSpace=wrap;fontSize=16;spacing=3.8;strokeOpacity=100;fillOpacity=100;fillColor=#c7e8ac;strokeWidth=3;lucidId=~.tM_RMryY_O;rounded=1;fontFamily=Lucida Console;strokeColor=default;align=center;verticalAlign=middle;fontColor=default;" vertex="1" parent="1">
          <mxGeometry x="3932" y="3324" width="121" height="60" as="geometry" />
        </mxCell>
        <mxCell id="UearFfjyuwTbAO5nafOu-70" value="Section Name" style="html=1;overflow=block;blockSpacing=1;whiteSpace=wrap;fontSize=16;spacing=3.8;strokeOpacity=100;fillOpacity=100;fillColor=#c7e8ac;strokeWidth=3;lucidId=~.tM_RMryY_O;rounded=1;fontFamily=Lucida Console;strokeColor=default;align=center;verticalAlign=middle;fontColor=default;" vertex="1" parent="1">
          <mxGeometry x="3621" y="3324" width="121" height="60" as="geometry" />
        </mxCell>
        <mxCell id="UearFfjyuwTbAO5nafOu-77" value="" style="html=1;jettySize=18;whiteSpace=wrap;fontSize=13;strokeOpacity=100;strokeWidth=3;rounded=1;arcSize=60;edgeStyle=orthogonalEdgeStyle;startArrow=none;endArrow=none;lucidId=~.tMxG1s-68b;exitX=1.012;exitY=0.502;exitDx=0;exitDy=0;exitPerimeter=0;" edge="1" parent="1" source="UearFfjyuwTbAO5nafOu-70" target="UearFfjyuwTbAO5nafOu-78">
          <mxGeometry width="100" height="100" relative="1" as="geometry">
            <Array as="points">
              <mxPoint x="3781" y="3354" />
              <mxPoint x="3781" y="3398" />
              <mxPoint x="4097" y="3398" />
              <mxPoint x="4097" y="3355" />
            </Array>
            <mxPoint x="3757" y="3361" as="sourcePoint" />
            <mxPoint x="4128" y="3352" as="targetPoint" />
          </mxGeometry>
        </mxCell>
        <mxCell id="UearFfjyuwTbAO5nafOu-78" value="New Line" style="html=1;overflow=block;blockSpacing=1;whiteSpace=wrap;fontSize=16;spacing=3.8;strokeOpacity=100;fillOpacity=100;fillColor=#c7e8ac;strokeWidth=3;lucidId=~.tM_RMryY_O;rounded=1;fontFamily=Lucida Console;strokeColor=default;align=center;verticalAlign=middle;fontColor=default;" vertex="1" parent="1">
          <mxGeometry x="4131" y="3324" width="116" height="60" as="geometry" />
        </mxCell>
        <mxCell id="UearFfjyuwTbAO5nafOu-80" value="" style="html=1;jettySize=18;whiteSpace=wrap;fontSize=13;strokeOpacity=100;strokeWidth=3;rounded=1;arcSize=60;edgeStyle=orthogonalEdgeStyle;startArrow=none;endArrow=none;lucidId=~.tM86gG2Mg4;exitX=1;exitY=0.5;exitDx=0;exitDy=0;" edge="1" parent="1" source="UearFfjyuwTbAO5nafOu-70" target="UearFfjyuwTbAO5nafOu-71">
          <mxGeometry width="100" height="100" relative="1" as="geometry">
            <Array as="points" />
            <mxPoint x="3745" y="3354" as="sourcePoint" />
            <mxPoint x="4129" y="3354" as="targetPoint" />
          </mxGeometry>
        </mxCell>
        <mxCell id="UearFfjyuwTbAO5nafOu-71" value=":" style="html=1;overflow=block;blockSpacing=1;whiteSpace=wrap;fontSize=16;spacing=3.8;strokeOpacity=100;fillOpacity=100;fillColor=#fff2cc;strokeWidth=3;lucidId=~.tM_RMryY_O;rounded=1;fontFamily=Lucida Console;strokeColor=#d6b656;align=center;verticalAlign=middle;" vertex="1" parent="1">
          <mxGeometry x="3820" y="3324" width="57" height="60" as="geometry" />
        </mxCell>
        <mxCell id="UearFfjyuwTbAO5nafOu-81" value="" style="html=1;jettySize=18;whiteSpace=wrap;fontSize=13;strokeOpacity=100;strokeWidth=3;rounded=1;arcSize=60;edgeStyle=orthogonalEdgeStyle;startArrow=none;endArrow=none;lucidId=~.tM86gG2Mg4;exitX=1;exitY=0.5;exitDx=0;exitDy=0;" edge="1" parent="1">
          <mxGeometry width="100" height="100" relative="1" as="geometry">
            <Array as="points" />
            <mxPoint x="4247" y="3353.57" as="sourcePoint" />
            <mxPoint x="4325" y="3353.57" as="targetPoint" />
          </mxGeometry>
        </mxCell>
        <mxCell id="UearFfjyuwTbAO5nafOu-82" value="Object" style="html=1;overflow=block;blockSpacing=1;whiteSpace=wrap;fontSize=16;fontColor=default;spacing=3.8;strokeOpacity=100;fillOpacity=100;fillColor=#c7e8ac;strokeWidth=3;lucidId=~.tM_RMryY_O;rounded=1;fontFamily=Lucida Console;" vertex="1" parent="1">
          <mxGeometry x="3781" y="3556" width="120" height="60" as="geometry" />
        </mxCell>
        <mxCell id="UearFfjyuwTbAO5nafOu-83" value="Section Data" style="html=1;overflow=block;blockSpacing=1;whiteSpace=wrap;fontSize=16;fontFamily=Lucida Console;fontColor=default;align=left;spacing=3.8;verticalAlign=top;strokeOpacity=0;fillOpacity=0;fillColor=#ffffff;strokeWidth=3;lucidId=teuMFIX.KSBV;fontStyle=1" vertex="1" parent="1">
          <mxGeometry x="3650" y="3559" width="131" height="26" as="geometry" />
        </mxCell>
      </root>
    </mxGraphModel>
  </diagram>
</mxfile>
